<?xml version="1.0" encoding="UTF-8"?>
<svg version="1.1" xmlns="http://www.w3.org/2000/svg" width="1920" height="1920">
<path d="M0 0 C4.52622371 0.00570105 9.05238869 0.00229536 13.57861042 -0.00342941 C41.10601323 -0.03316088 68.62059471 0.11381656 96.0559082 2.63037109 C96.94175598 2.71007141 97.82760376 2.78977173 98.74029541 2.87188721 C145.29565974 7.15355316 191.56239323 15.72732637 236.8684082 27.13037109 C238.61130127 27.56567139 238.61130127 27.56567139 240.3894043 28.00976562 C256.03420942 31.92917337 271.49925304 36.24292803 286.8684082 41.13037109 C288.2896187 41.58028342 289.71084355 42.03015038 291.13208008 42.47998047 C308.3130084 47.92708208 325.46287999 53.37526428 342.20483398 60.07470703 C345.23839473 61.2770092 348.2849002 62.44265416 351.33325195 63.60693359 C375.44318805 72.86106401 398.78212431 83.53519275 421.9934082 94.81787109 C422.79622223 95.2075708 423.59903625 95.59727051 424.42617798 95.9987793 C440.28936802 103.71355399 455.97439388 111.77570368 471.3059082 120.50537109 C472.25908936 121.04645508 473.21227051 121.58753906 474.19433594 122.14501953 C487.60440002 129.79141074 500.85327576 137.69625469 513.78637695 146.12646484 C516.58843359 147.94833437 519.41138594 149.73063715 522.2434082 151.50537109 C534.42443204 159.25042737 546.16477692 167.68794467 557.8684082 176.13037109 C558.82360352 176.81873047 559.77879883 177.50708984 560.76293945 178.21630859 C575.35553607 188.77976194 589.70050873 199.63188763 603.38671875 211.34985352 C606.81982841 214.27898161 610.33697089 217.01547575 613.9777832 219.67724609 C617.79301538 222.60961463 621.29929729 225.90747023 624.8684082 229.13037109 C626.17850612 230.27895009 627.4909353 231.42487654 628.8059082 232.56787109 C635.3238285 238.26453343 641.74656483 244.00852773 647.8684082 250.13037109 C649.88077419 252.01578245 651.89944183 253.890883 653.9309082 255.75537109 C654.49310059 256.27389648 655.05529297 256.79242188 655.63452148 257.32666016 C658.45502293 259.92546624 661.28589435 262.51152301 664.13793945 265.07568359 C669.16633931 269.60952517 673.93737686 274.16790511 678.29418945 279.36865234 C679.87933541 281.1425998 681.53345519 282.61947159 683.3684082 284.13037109 C686.66523523 286.84583799 689.35648426 289.87750521 692.1184082 293.12646484 C693.79825397 295.05003823 695.5449104 296.84350606 697.3684082 298.63037109 C700.39261312 301.60753282 703.19352632 304.72079902 705.95825195 307.93896484 C708.94760573 311.36846887 712.05257515 314.69292844 715.14575195 318.02880859 C716.8684082 320.13037109 716.8684082 320.13037109 716.8684082 322.13037109 C717.69598633 322.42234375 717.69598633 322.42234375 718.5402832 322.72021484 C721.85493687 324.72791614 723.83500722 327.63554428 726.1184082 330.69287109 C729.25295247 334.79189052 732.38205223 338.81987045 735.8684082 342.63037109 C741.21223159 348.51948258 746.00809041 354.84258367 750.8684082 361.13037109 C751.70304169 362.20589343 752.53767703 363.28141431 753.37231445 364.35693359 C762.44757429 376.09795997 771.48467887 387.88239778 779.8684082 400.13037109 C780.82001005 401.50682604 781.77185706 402.88311151 782.72387695 404.25927734 C795.76244021 423.154448 808.06600526 442.44020551 819.8684082 462.13037109 C820.31780762 462.87851074 820.76720703 463.62665039 821.23022461 464.39746094 C831.67399159 481.82547163 841.93098827 499.47675712 850.74145508 517.79394531 C852.10025936 520.61105037 853.4772129 523.41907167 854.8527832 526.22802734 C862.23818486 541.36953075 869.24461766 556.64096798 875.8684082 572.13037109 C876.29750488 573.13165039 876.72660156 574.13292969 877.16870117 575.16455078 C893.04266849 612.34605849 906.45984257 650.62541946 916.9230957 689.67724609 C917.7758968 692.79243688 918.67942834 695.88402372 919.6184082 698.97412109 C925.46143691 718.40719097 929.21450201 738.32156417 933.23118591 758.19416809 C934.23639732 763.14158857 935.2990006 768.06237467 936.4855957 772.97021484 C938.34938729 780.88744619 939.54419131 788.90325445 940.7434082 796.94287109 C940.87024994 797.7847699 940.99709167 798.6266687 941.1277771 799.49407959 C943.37725068 814.53928504 945.1230852 829.62417739 946.6809082 844.75537109 C946.78586609 845.77394196 946.89082397 846.79251282 946.9989624 847.84194946 C947.29959914 850.78403072 947.59531762 853.72654501 947.88793945 856.66943359 C947.97309311 857.52019974 948.05824677 858.37096588 948.14598083 859.24751282 C949.27259887 870.8385996 950.01773058 882.37384589 950.02954102 894.02197266 C950.03450592 895.22761368 950.03947083 896.4332547 950.04458618 897.6754303 C950.05656783 900.94331471 950.06412155 904.21116363 950.06859684 907.4790659 C950.07156262 909.54145373 950.07567369 911.60383644 950.08010101 913.66622162 C950.09374076 920.17812671 950.10341942 926.69001955 950.1073029 933.20193791 C950.11130853 939.87459799 950.12350676 946.54711456 950.1496582 953.21972656 C950.38738343 1015.23902168 950.38738343 1015.23902168 947.25653076 1040.93554688 C946.88450622 1043.99786051 946.55782797 1047.06103398 946.24975586 1050.13037109 C945.73145783 1055.26119929 945.1583251 1060.38379218 944.5559082 1065.50537109 C944.40108475 1066.83207321 944.40108475 1066.83207321 944.24313354 1068.18557739 C941.10804251 1094.83370365 936.65234354 1121.18997657 930.72192383 1147.36181641 C929.93172343 1150.85081336 929.15259504 1154.34206133 928.37637329 1157.83418274 C927.67669806 1160.97566619 926.97116054 1164.11581124 926.26385498 1167.25558472 C925.92327384 1168.76874832 925.58391044 1170.28218666 925.24591064 1171.79592896 C923.41479143 1179.97507362 921.38254672 1188.01988027 918.83764648 1196.01293945 C917.52675619 1200.22925133 916.41138059 1204.48902012 915.28198242 1208.75683594 C911.85341909 1221.65197233 907.96373083 1234.34819846 903.7434082 1247.00537109 C903.49582764 1247.75215118 903.24824707 1248.49893127 902.99316406 1249.26834106 C900.04285154 1258.14166284 896.84650263 1266.85831293 893.3190918 1275.51806641 C890.52904599 1282.46547767 888.02415695 1289.52102976 885.48168945 1296.56201172 C883.5298032 1301.90063479 881.52581621 1307.05459572 878.88696289 1312.08911133 C876.20817506 1317.45760248 874.10448478 1323.11786419 871.84301758 1328.67138672 C865.81096483 1343.33959662 858.77851851 1357.51831799 851.6809082 1371.69287109 C851.2628894 1372.52797211 850.84487061 1373.36307312 850.41418457 1374.22348022 C839.45029841 1396.09823519 827.60592999 1417.23480669 814.8684082 1438.13037109 C814.08687502 1439.42056418 813.30557599 1440.71089918 812.5246582 1442.00146484 C800.16993628 1462.28042439 786.88253574 1481.96617548 772.8684082 1501.13037109 C772.04779414 1502.26296516 771.22749536 1503.39578771 770.4074707 1504.52880859 C763.64650109 1513.8434181 756.6381643 1522.9494581 749.53344727 1532.00390625 C748.00051628 1533.96165242 746.47576361 1535.92539171 744.9543457 1537.89208984 C738.51223144 1546.19691509 731.77234157 1554.2066274 724.8684082 1562.13037109 C724.20969727 1562.89091797 723.55098633 1563.65146484 722.87231445 1564.43505859 C715.56817207 1572.83566577 708.05737892 1581.04136295 700.44433594 1589.16186523 C699.89720947 1589.74572998 699.35008301 1590.32959473 698.78637695 1590.93115234 C697.88749756 1591.89021484 697.88749756 1591.89021484 696.97045898 1592.86865234 C695.38752118 1594.57182723 693.81467732 1596.28439188 692.24682617 1598.00146484 C685.16375563 1605.75568902 677.87872624 1613.27649083 670.43969727 1620.68945312 C668.6022506 1622.52148105 666.77029171 1624.35887715 664.9387207 1626.19677734 C659.65775942 1631.48072335 654.3855715 1636.7057847 648.69311523 1641.55078125 C644.4152919 1645.25395452 640.38799339 1649.24724028 636.31176758 1653.16943359 C632.03651268 1657.23661823 627.64255519 1660.98175193 622.93286133 1664.53857422 C618.789931 1667.73298124 614.92824364 1671.26944681 611.0480957 1674.77490234 C606.09820802 1679.19666394 600.8973678 1683.24445902 595.6184082 1687.26318359 C592.1544131 1689.90215191 588.72421086 1692.58287818 585.29541016 1695.26733398 C576.60824138 1702.06210222 567.82818578 1708.69941508 558.8684082 1715.13037109 C558.20518555 1715.60684082 557.54196289 1716.08331055 556.85864258 1716.57421875 C542.49254535 1726.86720862 527.84758599 1736.75010495 512.8684082 1746.13037109 C511.69512514 1746.87108866 510.52195614 1747.61198693 509.34887695 1748.35302734 C495.11516271 1757.32216756 480.69454067 1765.97938202 466.1184082 1774.38037109 C465.32861572 1774.83911621 464.53882324 1775.29786133 463.72509766 1775.77050781 C457.27725876 1779.46041379 450.66391455 1782.771824 444.01000977 1786.06835938 C440.12516363 1787.9951752 436.26858844 1789.97347662 432.4152832 1791.96240234 C400.19963453 1808.50521372 366.91960971 1822.8085921 332.8684082 1835.13037109 C330.51022496 1835.99725855 328.15215374 1836.86445077 325.79418945 1837.73193359 C310.30104471 1843.38954263 294.67868867 1848.43954419 278.8684082 1853.13037109 C276.82930741 1853.74352501 274.79024444 1854.35680472 272.7512207 1854.97021484 C259.92481976 1858.79984436 247.03128458 1862.23938016 234.01635742 1865.36669922 C230.87976605 1866.12761575 227.75123806 1866.91670661 224.62231445 1867.70849609 C175.22294496 1879.97121436 124.59511894 1887.49012877 73.76358032 1889.93016052 C71.16260307 1890.0638499 68.56238853 1890.21328998 65.96321106 1890.37831116 C54.27565279 1891.11999602 42.6278562 1891.2937545 30.91918945 1891.29833984 C28.93084186 1891.30157076 26.94249449 1891.30493603 24.95414734 1891.3084259 C20.7999924 1891.31437084 16.6458581 1891.31627108 12.49169922 1891.31567383 C8.32205802 1891.31559331 4.15252843 1891.32242324 -0.01708984 1891.33618164 C-34.04247274 1891.44658929 -68.02055256 1890.92215848 -101.8815918 1887.25537109 C-102.70369141 1887.16911469 -103.52579102 1887.08285828 -104.37280273 1886.99398804 C-142.39695345 1883.00190488 -180.70793949 1876.66073681 -217.72729492 1867.00830078 C-221.09704472 1866.1392804 -224.4727302 1865.29856897 -227.85102844 1864.46359253 C-247.09250505 1859.70383427 -266.07426301 1854.58603004 -284.8605957 1848.23046875 C-288.17679362 1847.11516887 -291.50191373 1846.03134412 -294.83081055 1844.95458984 C-311.47231533 1839.54453266 -327.84114038 1833.51640756 -344.1315918 1827.13037109 C-345.24469727 1826.69499023 -346.35780273 1826.25960938 -347.50463867 1825.81103516 C-403.3878956 1803.82499358 -458.0776829 1776.34633923 -508.1315918 1743.13037109 C-509.32993652 1742.33566406 -509.32993652 1742.33566406 -510.55249023 1741.52490234 C-515.95924888 1737.93492555 -521.35614815 1734.33039704 -526.74975586 1730.72070312 C-528.81842942 1729.33946701 -530.89108391 1727.96472547 -532.9675293 1726.59521484 C-534.01166992 1725.90556641 -535.05581055 1725.21591797 -536.1315918 1724.50537109 C-537.4309668 1723.65072266 -537.4309668 1723.65072266 -538.7565918 1722.77880859 C-541.3135285 1721.00409266 -543.70323378 1719.07673684 -546.1315918 1717.13037109 C-548.20760705 1715.6392649 -550.28987567 1714.16146523 -552.3815918 1712.69287109 C-560.80153654 1706.72648742 -568.97506407 1700.44993059 -577.1315918 1694.13037109 C-578.07615234 1693.40068115 -578.07615234 1693.40068115 -579.03979492 1692.65625 C-589.65910624 1684.44190036 -599.93385533 1675.86770329 -609.9987793 1666.98193359 C-612.17859397 1665.08956701 -614.39015919 1663.23777405 -616.60546875 1661.38720703 C-622.60714496 1656.36436401 -628.41530943 1651.17779063 -634.1105957 1645.80957031 C-636.9389914 1643.1468052 -639.79831986 1640.54652227 -642.74926758 1638.01977539 C-647.58105166 1633.79998203 -652.10638763 1629.29938613 -656.63549805 1624.75927734 C-657.51761459 1623.87811752 -658.39973114 1622.9969577 -659.30857849 1622.08909607 C-661.63391989 1619.76460359 -663.95682798 1617.43771202 -666.27893066 1615.10998535 C-667.69304003 1613.69392431 -669.109083 1612.27982788 -670.52587891 1610.86645508 C-673.27345899 1608.12508853 -676.01751286 1605.38024075 -678.76049805 1602.63427734 C-679.59609756 1601.80070206 -680.43169708 1600.96712677 -681.2926178 1600.10829163 C-685.57031975 1595.813618 -689.70549984 1591.45326543 -693.65208435 1586.85142517 C-695.91567316 1584.21827942 -698.27521524 1581.68080219 -700.6315918 1579.13037109 C-707.29103317 1571.88972975 -713.66406107 1564.5011062 -719.8659668 1556.86474609 C-722.5250691 1553.6554847 -725.29088211 1550.56068512 -728.11206055 1547.49365234 C-730.37850053 1544.84143535 -732.44410287 1542.07882211 -734.52294922 1539.27856445 C-736.09600531 1537.17789356 -737.70086517 1535.10737683 -739.32299805 1533.04443359 C-747.04561055 1523.22301247 -754.48474592 1513.24027163 -761.74194336 1503.07080078 C-763.60275749 1500.47246088 -765.49164557 1497.8950705 -767.3815918 1495.31787109 C-774.83156597 1485.05687574 -781.87068287 1474.54700405 -788.8190918 1463.94287109 C-789.18485321 1463.38574432 -789.55061462 1462.82861755 -789.92745972 1462.25460815 C-794.488391 1455.30153087 -798.89832793 1448.28696938 -803.1315918 1441.13037109 C-804.10667702 1439.5096897 -805.08324816 1437.88990142 -806.0612793 1436.27099609 C-811.87447979 1426.62616873 -817.66562208 1416.97753296 -823.1315918 1407.13037109 C-823.58050781 1406.32277344 -824.02942383 1405.51517578 -824.49194336 1404.68310547 C-838.13205024 1380.04694647 -850.7184878 1354.8749358 -862.1315918 1329.13037109 C-862.52008301 1328.25687012 -862.90857422 1327.38336914 -863.30883789 1326.48339844 C-869.25896068 1313.04052843 -874.58877101 1299.38188853 -879.78857422 1285.63378906 C-880.76012352 1283.09938942 -881.74598399 1280.57417074 -882.75 1278.05273438 C-887.28599813 1266.62686789 -891.28433353 1255.07502539 -895.0690918 1243.38037109 C-895.37151794 1242.45125916 -895.67394409 1241.52214722 -895.98553467 1240.56488037 C-900.96435812 1225.23889125 -905.34706933 1209.85568375 -909.29638672 1194.23388672 C-910.11433715 1191.19448717 -911.0568058 1188.22349513 -912.03393555 1185.23193359 C-915.09116293 1175.46024856 -916.9872172 1165.39441541 -919.0690918 1155.38037109 C-919.5164774 1153.24255138 -919.96406992 1151.10477495 -920.41186523 1148.96704102 C-921.27942563 1144.82021182 -922.14289383 1140.67255652 -923.00415039 1136.52441406 C-923.87146469 1132.35712278 -924.76542427 1128.1971488 -925.68237305 1124.04052734 C-931.65275211 1096.54193707 -934.66311552 1068.29227726 -937.4440918 1040.31787109 C-937.52531281 1039.50091766 -937.60653381 1038.68396423 -937.69021606 1037.84225464 C-937.92106378 1035.49467246 -938.14692373 1033.14668445 -938.36987305 1030.79833984 C-938.43313782 1030.14053528 -938.49640259 1029.48273071 -938.56158447 1028.80499268 C-938.76693237 1026.58121697 -938.95017953 1024.35622935 -939.1315918 1022.13037109 C-939.21821075 1021.16165573 -939.30482971 1020.19294037 -939.39407349 1019.19487 C-940.42209199 1006.25089987 -940.31524467 993.29057858 -940.3347168 980.31396484 C-940.33754417 979.02917803 -940.34037155 977.74439121 -940.34328461 976.42067146 C-940.35668925 970.29960063 -940.36659938 964.17854829 -940.3704865 958.05746406 C-940.3744848 951.80394737 -940.38664158 945.55058434 -940.4128418 939.29711914 C-940.53912096 908.45866333 -940.47376167 877.81921967 -937.1315918 847.13037109 C-936.95058929 845.39368668 -936.95058929 845.39368668 -936.76593018 843.62191772 C-936.04320511 836.73669246 -935.21399651 829.87012684 -934.3190918 823.00537109 C-934.19319672 822.01782837 -934.06730164 821.03028564 -933.93759155 820.01281738 C-932.18261642 806.26270563 -930.21623906 792.55469531 -927.9440918 778.88037109 C-927.8237558 778.15219177 -927.7034198 777.42401245 -927.57943726 776.67376709 C-926.32680414 769.16528431 -924.86726745 761.76460852 -922.94628906 754.39599609 C-921.94955773 750.40070741 -921.08342441 746.3847306 -920.22924805 742.35693359 C-920.06356827 741.57833984 -919.89788849 740.79974609 -919.72718811 739.99755859 C-919.04335582 736.77760932 -918.36225297 733.55710919 -917.68652344 730.33544922 C-915.7944756 721.33247776 -913.77078953 712.4483723 -911.15673828 703.62109375 C-910.03832573 699.81279116 -909.00099584 695.98784479 -907.9753418 692.15380859 C-899.64767715 661.24801817 -889.62701462 631.00542455 -878.1315918 601.13037109 C-877.62233154 599.80344238 -877.62233154 599.80344238 -877.1027832 598.44970703 C-862.56238089 560.78768137 -845.11793111 524.06162859 -825.57788086 488.74951172 C-824.20961276 486.27166226 -822.85252682 483.78805086 -821.4987793 481.30224609 C-816.78757662 472.68530738 -811.82921139 464.28772865 -806.56518555 455.99755859 C-804.17832241 452.23121923 -801.90107411 448.40565014 -799.6315918 444.56787109 C-795.06949275 436.90174584 -790.15362361 429.5011098 -785.1315918 422.13037109 C-784.61516113 421.37143555 -784.09873047 420.6125 -783.56665039 419.83056641 C-780.26239917 414.97882911 -776.94520622 410.13613608 -773.61987305 405.29882812 C-772.31711644 403.4006844 -771.01990403 401.49895035 -769.7253418 399.59521484 C-757.90967691 382.3212265 -744.93225844 365.87159551 -731.63378906 349.72216797 C-729.0819447 346.60729318 -726.65328227 343.47858549 -724.3737793 340.15771484 C-723.63385742 339.15869141 -722.89393555 338.15966797 -722.1315918 337.13037109 C-721.4715918 337.13037109 -720.8115918 337.13037109 -720.1315918 337.13037109 C-719.75067383 336.28732422 -719.75067383 336.28732422 -719.36206055 335.42724609 C-713.83018329 325.10107521 -703.91789288 316.46860715 -695.92260742 308.03027344 C-693.42359185 305.37932753 -690.96333489 302.69557661 -688.5065918 300.00537109 C-687.64549805 299.06435547 -686.7844043 298.12333984 -685.8972168 297.15380859 C-684.42446689 295.54413392 -682.95226971 293.93396566 -681.48120117 292.32275391 C-679.74326957 290.42195217 -678.00036202 288.52581633 -676.2565918 286.63037109 C-675.7208252 286.04239746 -675.18505859 285.45442383 -674.63305664 284.84863281 C-671.65303472 281.61801601 -668.59266892 278.85604229 -665.1315918 276.13037109 C-664.03523213 274.93130795 -662.97092032 273.70198988 -661.9440918 272.44287109 C-657.03674412 266.70521296 -651.31941831 261.89979537 -645.6315918 256.95849609 C-644.8478418 256.27271484 -644.0640918 255.58693359 -643.2565918 254.88037109 C-642.55791992 254.27708984 -641.85924805 253.67380859 -641.1394043 253.05224609 C-639.04025189 251.13435497 -639.04025189 251.13435497 -637.2019043 248.66552734 C-634.9806451 245.94553259 -632.64554331 243.97770177 -629.8815918 241.81787109 C-626.3676944 239.00861979 -623.07199676 236.17607187 -619.9440918 232.94287109 C-616.9012997 229.80731095 -613.72800444 227.23670185 -610.19018555 224.68505859 C-607.93398378 222.98113392 -605.85446789 221.15046479 -603.7565918 219.25537109 C-599.03847175 215.00343667 -594.12404739 211.05401929 -589.1315918 207.13037109 C-588.08193515 206.29986619 -587.0324648 205.46912579 -585.9831543 204.63818359 C-568.77281545 191.0350117 -551.30784131 177.90380766 -533.16674805 165.56396484 C-529.87163573 163.322015 -526.58821034 161.06459421 -523.31518555 158.79052734 C-513.48169405 151.97270721 -503.50014931 145.51946078 -493.2277832 139.3828125 C-491.23772966 138.1937868 -489.25226807 136.99750243 -487.26831055 135.79833984 C-484.1894862 133.93948803 -481.10342514 132.09314074 -478.01342773 130.25292969 C-476.74717572 129.49758112 -475.48222164 128.74005289 -474.21850586 127.98046875 C-462.34118825 120.84280037 -450.2184399 114.19795824 -437.9987793 107.66601562 C-435.42351522 106.28672313 -432.8548481 104.89604038 -430.2878418 103.50146484 C-417.18556906 96.43148915 -403.70661473 90.2322274 -390.1315918 84.13037109 C-389.12310181 83.6760672 -389.12310181 83.6760672 -388.09423828 83.21258545 C-371.43670145 75.7105237 -354.79753254 68.29101789 -337.61889648 62.04736328 C-335.0097714 61.08545969 -332.41805116 60.08496575 -329.8269043 59.07568359 C-311.51834151 51.98793219 -292.84655379 46.03770909 -274.1315918 40.13037109 C-273.08390625 39.79875977 -272.0362207 39.46714844 -270.95678711 39.12548828 C-256.49736615 34.5784016 -241.83882689 30.78466068 -227.1315918 27.13037109 C-226.42075439 26.9533667 -225.70991699 26.7763623 -224.97753906 26.59399414 C-202.94574149 21.11793826 -180.90345047 16.1979351 -158.49493408 12.51904297 C-155.9726239 12.10422746 -153.45130498 11.68365367 -150.92993164 11.26318359 C-129.73209719 7.74900925 -108.53278964 4.71916884 -87.1315918 2.75537109 C-86.28583588 2.67583191 -85.44007996 2.59629272 -84.56869507 2.51434326 C-56.45164635 -0.08152142 -28.21012751 -0.03570568 0 0 Z " fill="#00133C" transform="translate(955.131591796875,14.86962890625)"/>
<path d="M0 0 C4.52622371 0.00570105 9.05238869 0.00229536 13.57861042 -0.00342941 C41.10601323 -0.03316088 68.62059471 0.11381656 96.0559082 2.63037109 C96.94175598 2.71007141 97.82760376 2.78977173 98.74029541 2.87188721 C145.29565974 7.15355316 191.56239323 15.72732637 236.8684082 27.13037109 C238.61130127 27.56567139 238.61130127 27.56567139 240.3894043 28.00976562 C256.03420942 31.92917337 271.49925304 36.24292803 286.8684082 41.13037109 C288.2896187 41.58028342 289.71084355 42.03015038 291.13208008 42.47998047 C308.3130084 47.92708208 325.46287999 53.37526428 342.20483398 60.07470703 C345.23839473 61.2770092 348.2849002 62.44265416 351.33325195 63.60693359 C375.44318805 72.86106401 398.78212431 83.53519275 421.9934082 94.81787109 C422.79622223 95.2075708 423.59903625 95.59727051 424.42617798 95.9987793 C440.28936802 103.71355399 455.97439388 111.77570368 471.3059082 120.50537109 C472.25908936 121.04645508 473.21227051 121.58753906 474.19433594 122.14501953 C487.60440002 129.79141074 500.85327576 137.69625469 513.78637695 146.12646484 C516.58843359 147.94833437 519.41138594 149.73063715 522.2434082 151.50537109 C534.42443204 159.25042737 546.16477692 167.68794467 557.8684082 176.13037109 C558.82360352 176.81873047 559.77879883 177.50708984 560.76293945 178.21630859 C575.35553607 188.77976194 589.70050873 199.63188763 603.38671875 211.34985352 C606.81982841 214.27898161 610.33697089 217.01547575 613.9777832 219.67724609 C617.79301538 222.60961463 621.29929729 225.90747023 624.8684082 229.13037109 C626.17850612 230.27895009 627.4909353 231.42487654 628.8059082 232.56787109 C635.3238285 238.26453343 641.74656483 244.00852773 647.8684082 250.13037109 C649.88077419 252.01578245 651.89944183 253.890883 653.9309082 255.75537109 C654.49310059 256.27389648 655.05529297 256.79242188 655.63452148 257.32666016 C658.45502293 259.92546624 661.28589435 262.51152301 664.13793945 265.07568359 C669.16633931 269.60952517 673.93737686 274.16790511 678.29418945 279.36865234 C679.87933541 281.1425998 681.53345519 282.61947159 683.3684082 284.13037109 C686.66523523 286.84583799 689.35648426 289.87750521 692.1184082 293.12646484 C693.79825397 295.05003823 695.5449104 296.84350606 697.3684082 298.63037109 C700.39261312 301.60753282 703.19352632 304.72079902 705.95825195 307.93896484 C708.94760573 311.36846887 712.05257515 314.69292844 715.14575195 318.02880859 C716.8684082 320.13037109 716.8684082 320.13037109 716.8684082 322.13037109 C717.69598633 322.42234375 717.69598633 322.42234375 718.5402832 322.72021484 C721.85493687 324.72791614 723.83500722 327.63554428 726.1184082 330.69287109 C729.25295247 334.79189052 732.38205223 338.81987045 735.8684082 342.63037109 C741.21223159 348.51948258 746.00809041 354.84258367 750.8684082 361.13037109 C751.70304169 362.20589343 752.53767703 363.28141431 753.37231445 364.35693359 C762.44757429 376.09795997 771.48467887 387.88239778 779.8684082 400.13037109 C780.82001005 401.50682604 781.77185706 402.88311151 782.72387695 404.25927734 C795.76244021 423.154448 808.06600526 442.44020551 819.8684082 462.13037109 C820.31780762 462.87851074 820.76720703 463.62665039 821.23022461 464.39746094 C831.67399159 481.82547163 841.93098827 499.47675712 850.74145508 517.79394531 C852.10025936 520.61105037 853.4772129 523.41907167 854.8527832 526.22802734 C862.23818486 541.36953075 869.24461766 556.64096798 875.8684082 572.13037109 C876.29750488 573.13165039 876.72660156 574.13292969 877.16870117 575.16455078 C893.04266849 612.34605849 906.45984257 650.62541946 916.9230957 689.67724609 C917.7758968 692.79243688 918.67942834 695.88402372 919.6184082 698.97412109 C925.46143691 718.40719097 929.21450201 738.32156417 933.23118591 758.19416809 C934.23639732 763.14158857 935.2990006 768.06237467 936.4855957 772.97021484 C938.34938729 780.88744619 939.54419131 788.90325445 940.7434082 796.94287109 C940.87024994 797.7847699 940.99709167 798.6266687 941.1277771 799.49407959 C943.37725068 814.53928504 945.1230852 829.62417739 946.6809082 844.75537109 C946.78586609 845.77394196 946.89082397 846.79251282 946.9989624 847.84194946 C947.29959914 850.78403072 947.59531762 853.72654501 947.88793945 856.66943359 C947.97309311 857.52019974 948.05824677 858.37096588 948.14598083 859.24751282 C949.27259887 870.8385996 950.01773058 882.37384589 950.02954102 894.02197266 C950.03450592 895.22761368 950.03947083 896.4332547 950.04458618 897.6754303 C950.05656783 900.94331471 950.06412155 904.21116363 950.06859684 907.4790659 C950.07156262 909.54145373 950.07567369 911.60383644 950.08010101 913.66622162 C950.09374076 920.17812671 950.10341942 926.69001955 950.1073029 933.20193791 C950.11130853 939.87459799 950.12350676 946.54711456 950.1496582 953.21972656 C950.38738343 1015.23902168 950.38738343 1015.23902168 947.25653076 1040.93554688 C946.88450622 1043.99786051 946.55782797 1047.06103398 946.24975586 1050.13037109 C945.73145783 1055.26119929 945.1583251 1060.38379218 944.5559082 1065.50537109 C944.40108475 1066.83207321 944.40108475 1066.83207321 944.24313354 1068.18557739 C941.10804251 1094.83370365 936.65234354 1121.18997657 930.72192383 1147.36181641 C929.93172343 1150.85081336 929.15259504 1154.34206133 928.37637329 1157.83418274 C927.67669806 1160.97566619 926.97116054 1164.11581124 926.26385498 1167.25558472 C925.92327384 1168.76874832 925.58391044 1170.28218666 925.24591064 1171.79592896 C923.41479143 1179.97507362 921.38254672 1188.01988027 918.83764648 1196.01293945 C917.52675619 1200.22925133 916.41138059 1204.48902012 915.28198242 1208.75683594 C911.85341909 1221.65197233 907.96373083 1234.34819846 903.7434082 1247.00537109 C903.49582764 1247.75215118 903.24824707 1248.49893127 902.99316406 1249.26834106 C900.04285154 1258.14166284 896.84650263 1266.85831293 893.3190918 1275.51806641 C890.52904599 1282.46547767 888.02415695 1289.52102976 885.48168945 1296.56201172 C883.5298032 1301.90063479 881.52581621 1307.05459572 878.88696289 1312.08911133 C876.20817506 1317.45760248 874.10448478 1323.11786419 871.84301758 1328.67138672 C865.81096483 1343.33959662 858.77851851 1357.51831799 851.6809082 1371.69287109 C851.2628894 1372.52797211 850.84487061 1373.36307312 850.41418457 1374.22348022 C839.45029841 1396.09823519 827.60592999 1417.23480669 814.8684082 1438.13037109 C814.08687502 1439.42056418 813.30557599 1440.71089918 812.5246582 1442.00146484 C800.16993628 1462.28042439 786.88253574 1481.96617548 772.8684082 1501.13037109 C772.04779414 1502.26296516 771.22749536 1503.39578771 770.4074707 1504.52880859 C763.64650109 1513.8434181 756.6381643 1522.9494581 749.53344727 1532.00390625 C748.00051628 1533.96165242 746.47576361 1535.92539171 744.9543457 1537.89208984 C738.51223144 1546.19691509 731.77234157 1554.2066274 724.8684082 1562.13037109 C724.20969727 1562.89091797 723.55098633 1563.65146484 722.87231445 1564.43505859 C715.56817207 1572.83566577 708.05737892 1581.04136295 700.44433594 1589.16186523 C699.89720947 1589.74572998 699.35008301 1590.32959473 698.78637695 1590.93115234 C697.88749756 1591.89021484 697.88749756 1591.89021484 696.97045898 1592.86865234 C695.38752118 1594.57182723 693.81467732 1596.28439188 692.24682617 1598.00146484 C685.16375563 1605.75568902 677.87872624 1613.27649083 670.43969727 1620.68945312 C668.6022506 1622.52148105 666.77029171 1624.35887715 664.9387207 1626.19677734 C659.65775942 1631.48072335 654.3855715 1636.7057847 648.69311523 1641.55078125 C644.4152919 1645.25395452 640.38799339 1649.24724028 636.31176758 1653.16943359 C632.03651268 1657.23661823 627.64255519 1660.98175193 622.93286133 1664.53857422 C618.789931 1667.73298124 614.92824364 1671.26944681 611.0480957 1674.77490234 C606.09820802 1679.19666394 600.8973678 1683.24445902 595.6184082 1687.26318359 C592.1544131 1689.90215191 588.72421086 1692.58287818 585.29541016 1695.26733398 C576.60824138 1702.06210222 567.82818578 1708.69941508 558.8684082 1715.13037109 C558.20518555 1715.60684082 557.54196289 1716.08331055 556.85864258 1716.57421875 C542.49254535 1726.86720862 527.84758599 1736.75010495 512.8684082 1746.13037109 C511.69512514 1746.87108866 510.52195614 1747.61198693 509.34887695 1748.35302734 C495.11516271 1757.32216756 480.69454067 1765.97938202 466.1184082 1774.38037109 C465.32861572 1774.83911621 464.53882324 1775.29786133 463.72509766 1775.77050781 C457.27725876 1779.46041379 450.66391455 1782.771824 444.01000977 1786.06835938 C440.12516363 1787.9951752 436.26858844 1789.97347662 432.4152832 1791.96240234 C400.19963453 1808.50521372 366.91960971 1822.8085921 332.8684082 1835.13037109 C330.51022496 1835.99725855 328.15215374 1836.86445077 325.79418945 1837.73193359 C310.30104471 1843.38954263 294.67868867 1848.43954419 278.8684082 1853.13037109 C276.82930741 1853.74352501 274.79024444 1854.35680472 272.7512207 1854.97021484 C259.92481976 1858.79984436 247.03128458 1862.23938016 234.01635742 1865.36669922 C230.87976605 1866.12761575 227.75123806 1866.91670661 224.62231445 1867.70849609 C175.22294496 1879.97121436 124.59511894 1887.49012877 73.76358032 1889.93016052 C71.16260307 1890.0638499 68.56238853 1890.21328998 65.96321106 1890.37831116 C54.27565279 1891.11999602 42.6278562 1891.2937545 30.91918945 1891.29833984 C28.93084186 1891.30157076 26.94249449 1891.30493603 24.95414734 1891.3084259 C20.7999924 1891.31437084 16.6458581 1891.31627108 12.49169922 1891.31567383 C8.32205802 1891.31559331 4.15252843 1891.32242324 -0.01708984 1891.33618164 C-34.04247274 1891.44658929 -68.02055256 1890.92215848 -101.8815918 1887.25537109 C-102.70369141 1887.16911469 -103.52579102 1887.08285828 -104.37280273 1886.99398804 C-142.39695345 1883.00190488 -180.70793949 1876.66073681 -217.72729492 1867.00830078 C-221.09704472 1866.1392804 -224.4727302 1865.29856897 -227.85102844 1864.46359253 C-247.09250505 1859.70383427 -266.07426301 1854.58603004 -284.8605957 1848.23046875 C-288.17679362 1847.11516887 -291.50191373 1846.03134412 -294.83081055 1844.95458984 C-311.47231533 1839.54453266 -327.84114038 1833.51640756 -344.1315918 1827.13037109 C-345.24469727 1826.69499023 -346.35780273 1826.25960938 -347.50463867 1825.81103516 C-403.3878956 1803.82499358 -458.0776829 1776.34633923 -508.1315918 1743.13037109 C-509.32993652 1742.33566406 -509.32993652 1742.33566406 -510.55249023 1741.52490234 C-515.95924888 1737.93492555 -521.35614815 1734.33039704 -526.74975586 1730.72070312 C-528.81842942 1729.33946701 -530.89108391 1727.96472547 -532.9675293 1726.59521484 C-534.01166992 1725.90556641 -535.05581055 1725.21591797 -536.1315918 1724.50537109 C-537.4309668 1723.65072266 -537.4309668 1723.65072266 -538.7565918 1722.77880859 C-541.3135285 1721.00409266 -543.70323378 1719.07673684 -546.1315918 1717.13037109 C-548.20760705 1715.6392649 -550.28987567 1714.16146523 -552.3815918 1712.69287109 C-560.80153654 1706.72648742 -568.97506407 1700.44993059 -577.1315918 1694.13037109 C-578.07615234 1693.40068115 -578.07615234 1693.40068115 -579.03979492 1692.65625 C-589.65910624 1684.44190036 -599.93385533 1675.86770329 -609.9987793 1666.98193359 C-612.17859397 1665.08956701 -614.39015919 1663.23777405 -616.60546875 1661.38720703 C-622.60714496 1656.36436401 -628.41530943 1651.17779063 -634.1105957 1645.80957031 C-636.9389914 1643.1468052 -639.79831986 1640.54652227 -642.74926758 1638.01977539 C-647.58105166 1633.79998203 -652.10638763 1629.29938613 -656.63549805 1624.75927734 C-657.51761459 1623.87811752 -658.39973114 1622.9969577 -659.30857849 1622.08909607 C-661.63391989 1619.76460359 -663.95682798 1617.43771202 -666.27893066 1615.10998535 C-667.69304003 1613.69392431 -669.109083 1612.27982788 -670.52587891 1610.86645508 C-673.27345899 1608.12508853 -676.01751286 1605.38024075 -678.76049805 1602.63427734 C-679.59609756 1601.80070206 -680.43169708 1600.96712677 -681.2926178 1600.10829163 C-685.57031975 1595.813618 -689.70549984 1591.45326543 -693.65208435 1586.85142517 C-695.91567316 1584.21827942 -698.27521524 1581.68080219 -700.6315918 1579.13037109 C-707.29103317 1571.88972975 -713.66406107 1564.5011062 -719.8659668 1556.86474609 C-722.5250691 1553.6554847 -725.29088211 1550.56068512 -728.11206055 1547.49365234 C-730.37850053 1544.84143535 -732.44410287 1542.07882211 -734.52294922 1539.27856445 C-736.09600531 1537.17789356 -737.70086517 1535.10737683 -739.32299805 1533.04443359 C-747.04561055 1523.22301247 -754.48474592 1513.24027163 -761.74194336 1503.07080078 C-763.60275749 1500.47246088 -765.49164557 1497.8950705 -767.3815918 1495.31787109 C-774.83156597 1485.05687574 -781.87068287 1474.54700405 -788.8190918 1463.94287109 C-789.18485321 1463.38574432 -789.55061462 1462.82861755 -789.92745972 1462.25460815 C-794.488391 1455.30153087 -798.89832793 1448.28696938 -803.1315918 1441.13037109 C-804.10667702 1439.5096897 -805.08324816 1437.88990142 -806.0612793 1436.27099609 C-811.87447979 1426.62616873 -817.66562208 1416.97753296 -823.1315918 1407.13037109 C-823.58050781 1406.32277344 -824.02942383 1405.51517578 -824.49194336 1404.68310547 C-838.13205024 1380.04694647 -850.7184878 1354.8749358 -862.1315918 1329.13037109 C-862.52008301 1328.25687012 -862.90857422 1327.38336914 -863.30883789 1326.48339844 C-869.25896068 1313.04052843 -874.58877101 1299.38188853 -879.78857422 1285.63378906 C-880.76012352 1283.09938942 -881.74598399 1280.57417074 -882.75 1278.05273438 C-887.28599813 1266.62686789 -891.28433353 1255.07502539 -895.0690918 1243.38037109 C-895.37151794 1242.45125916 -895.67394409 1241.52214722 -895.98553467 1240.56488037 C-900.96435812 1225.23889125 -905.34706933 1209.85568375 -909.29638672 1194.23388672 C-910.11433715 1191.19448717 -911.0568058 1188.22349513 -912.03393555 1185.23193359 C-915.09116293 1175.46024856 -916.9872172 1165.39441541 -919.0690918 1155.38037109 C-919.5164774 1153.24255138 -919.96406992 1151.10477495 -920.41186523 1148.96704102 C-921.27942563 1144.82021182 -922.14289383 1140.67255652 -923.00415039 1136.52441406 C-923.87146469 1132.35712278 -924.76542427 1128.1971488 -925.68237305 1124.04052734 C-931.65275211 1096.54193707 -934.66311552 1068.29227726 -937.4440918 1040.31787109 C-937.52531281 1039.50091766 -937.60653381 1038.68396423 -937.69021606 1037.84225464 C-937.92106378 1035.49467246 -938.14692373 1033.14668445 -938.36987305 1030.79833984 C-938.43313782 1030.14053528 -938.49640259 1029.48273071 -938.56158447 1028.80499268 C-938.76693237 1026.58121697 -938.95017953 1024.35622935 -939.1315918 1022.13037109 C-939.21821075 1021.16165573 -939.30482971 1020.19294037 -939.39407349 1019.19487 C-940.42209199 1006.25089987 -940.31524467 993.29057858 -940.3347168 980.31396484 C-940.33754417 979.02917803 -940.34037155 977.74439121 -940.34328461 976.42067146 C-940.35668925 970.29960063 -940.36659938 964.17854829 -940.3704865 958.05746406 C-940.3744848 951.80394737 -940.38664158 945.55058434 -940.4128418 939.29711914 C-940.53912096 908.45866333 -940.47376167 877.81921967 -937.1315918 847.13037109 C-936.95058929 845.39368668 -936.95058929 845.39368668 -936.76593018 843.62191772 C-936.04320511 836.73669246 -935.21399651 829.87012684 -934.3190918 823.00537109 C-934.19319672 822.01782837 -934.06730164 821.03028564 -933.93759155 820.01281738 C-932.18261642 806.26270563 -930.21623906 792.55469531 -927.9440918 778.88037109 C-927.8237558 778.15219177 -927.7034198 777.42401245 -927.57943726 776.67376709 C-926.32680414 769.16528431 -924.86726745 761.76460852 -922.94628906 754.39599609 C-921.94955773 750.40070741 -921.08342441 746.3847306 -920.22924805 742.35693359 C-920.06356827 741.57833984 -919.89788849 740.79974609 -919.72718811 739.99755859 C-919.04335582 736.77760932 -918.36225297 733.55710919 -917.68652344 730.33544922 C-915.7944756 721.33247776 -913.77078953 712.4483723 -911.15673828 703.62109375 C-910.03832573 699.81279116 -909.00099584 695.98784479 -907.9753418 692.15380859 C-899.64767715 661.24801817 -889.62701462 631.00542455 -878.1315918 601.13037109 C-877.62233154 599.80344238 -877.62233154 599.80344238 -877.1027832 598.44970703 C-862.56238089 560.78768137 -845.11793111 524.06162859 -825.57788086 488.74951172 C-824.20961276 486.27166226 -822.85252682 483.78805086 -821.4987793 481.30224609 C-816.78757662 472.68530738 -811.82921139 464.28772865 -806.56518555 455.99755859 C-804.17832241 452.23121923 -801.90107411 448.40565014 -799.6315918 444.56787109 C-795.06949275 436.90174584 -790.15362361 429.5011098 -785.1315918 422.13037109 C-784.61516113 421.37143555 -784.09873047 420.6125 -783.56665039 419.83056641 C-780.26239917 414.97882911 -776.94520622 410.13613608 -773.61987305 405.29882812 C-772.31711644 403.4006844 -771.01990403 401.49895035 -769.7253418 399.59521484 C-757.90967691 382.3212265 -744.93225844 365.87159551 -731.63378906 349.72216797 C-729.0819447 346.60729318 -726.65328227 343.47858549 -724.3737793 340.15771484 C-723.63385742 339.15869141 -722.89393555 338.15966797 -722.1315918 337.13037109 C-721.4715918 337.13037109 -720.8115918 337.13037109 -720.1315918 337.13037109 C-719.75067383 336.28732422 -719.75067383 336.28732422 -719.36206055 335.42724609 C-713.83018329 325.10107521 -703.91789288 316.46860715 -695.92260742 308.03027344 C-693.42359185 305.37932753 -690.96333489 302.69557661 -688.5065918 300.00537109 C-687.64549805 299.06435547 -686.7844043 298.12333984 -685.8972168 297.15380859 C-684.42446689 295.54413392 -682.95226971 293.93396566 -681.48120117 292.32275391 C-679.74326957 290.42195217 -678.00036202 288.52581633 -676.2565918 286.63037109 C-675.7208252 286.04239746 -675.18505859 285.45442383 -674.63305664 284.84863281 C-671.65303472 281.61801601 -668.59266892 278.85604229 -665.1315918 276.13037109 C-664.03523213 274.93130795 -662.97092032 273.70198988 -661.9440918 272.44287109 C-657.03674412 266.70521296 -651.31941831 261.89979537 -645.6315918 256.95849609 C-644.8478418 256.27271484 -644.0640918 255.58693359 -643.2565918 254.88037109 C-642.55791992 254.27708984 -641.85924805 253.67380859 -641.1394043 253.05224609 C-639.04025189 251.13435497 -639.04025189 251.13435497 -637.2019043 248.66552734 C-634.9806451 245.94553259 -632.64554331 243.97770177 -629.8815918 241.81787109 C-626.3676944 239.00861979 -623.07199676 236.17607187 -619.9440918 232.94287109 C-616.9012997 229.80731095 -613.72800444 227.23670185 -610.19018555 224.68505859 C-607.93398378 222.98113392 -605.85446789 221.15046479 -603.7565918 219.25537109 C-599.03847175 215.00343667 -594.12404739 211.05401929 -589.1315918 207.13037109 C-588.08193515 206.29986619 -587.0324648 205.46912579 -585.9831543 204.63818359 C-568.77281545 191.0350117 -551.30784131 177.90380766 -533.16674805 165.56396484 C-529.87163573 163.322015 -526.58821034 161.06459421 -523.31518555 158.79052734 C-513.48169405 151.97270721 -503.50014931 145.51946078 -493.2277832 139.3828125 C-491.23772966 138.1937868 -489.25226807 136.99750243 -487.26831055 135.79833984 C-484.1894862 133.93948803 -481.10342514 132.09314074 -478.01342773 130.25292969 C-476.74717572 129.49758112 -475.48222164 128.74005289 -474.21850586 127.98046875 C-462.34118825 120.84280037 -450.2184399 114.19795824 -437.9987793 107.66601562 C-435.42351522 106.28672313 -432.8548481 104.89604038 -430.2878418 103.50146484 C-417.18556906 96.43148915 -403.70661473 90.2322274 -390.1315918 84.13037109 C-389.12310181 83.6760672 -389.12310181 83.6760672 -388.09423828 83.21258545 C-371.43670145 75.7105237 -354.79753254 68.29101789 -337.61889648 62.04736328 C-335.0097714 61.08545969 -332.41805116 60.08496575 -329.8269043 59.07568359 C-311.51834151 51.98793219 -292.84655379 46.03770909 -274.1315918 40.13037109 C-273.08390625 39.79875977 -272.0362207 39.46714844 -270.95678711 39.12548828 C-256.49736615 34.5784016 -241.83882689 30.78466068 -227.1315918 27.13037109 C-226.42075439 26.9533667 -225.70991699 26.7763623 -224.97753906 26.59399414 C-202.94574149 21.11793826 -180.90345047 16.1979351 -158.49493408 12.51904297 C-155.9726239 12.10422746 -153.45130498 11.68365367 -150.92993164 11.26318359 C-129.73209719 7.74900925 -108.53278964 4.71916884 -87.1315918 2.75537109 C-86.28583588 2.67583191 -85.44007996 2.59629272 -84.56869507 2.51434326 C-56.45164635 -0.08152142 -28.21012751 -0.03570568 0 0 Z M-22.00341797 76.88781738 C-25.14495 77.24586626 -28.2861078 77.38519293 -31.4440918 77.52490234 C-32.84199143 77.59104694 -34.23985798 77.65789345 -35.63769531 77.7253418 C-36.36755646 77.76019684 -37.0974176 77.79505188 -37.84939575 77.83096313 C-70.77424543 79.44544 -103.60350045 82.76454594 -136.1315918 88.13037109 C-136.99212158 88.27176514 -137.85265137 88.41315918 -138.73925781 88.55883789 C-184.77455068 96.17541296 -230.03650999 107.55724389 -274.24621582 122.49346924 C-276.00268919 123.0868263 -277.76092184 123.67496844 -279.51928711 124.26269531 C-313.34426356 135.6594362 -347.29066315 149.71466888 -379.02319336 166.05859375 C-381.39956458 167.26659163 -383.79131057 168.44015483 -386.1862793 169.61083984 C-398.70651414 175.74820986 -410.90550022 182.32303636 -422.97387695 189.30566406 C-425.74270145 190.90564816 -428.51749896 192.49473972 -431.29428101 194.08085632 C-447.68193791 203.45712892 -463.51214431 213.44501302 -479.11230469 224.08154297 C-482.17803645 226.16188751 -485.26189918 228.21283356 -488.3503418 230.25927734 C-493.33234693 233.57505186 -498.22850936 236.98695161 -503.0690918 240.50537109 C-503.83922607 241.06353516 -504.60936035 241.62169922 -505.40283203 242.19677734 C-511.47982402 246.61870761 -517.45021417 251.1602622 -523.38012695 255.77783203 C-525.37437597 257.31785706 -527.38278297 258.83822503 -529.39331055 260.35693359 C-536.13692019 265.45750119 -542.81149499 270.52345868 -549.04174805 276.25146484 C-551.44034923 278.40796422 -553.93070809 280.42146888 -556.4440918 282.44287109 C-561.52288481 286.56138811 -566.33000954 290.90260357 -571.11206055 295.35693359 C-572.61918068 296.75848921 -574.13454389 298.13287612 -575.70391846 299.46458435 C-582.70036334 305.40163386 -589.09585933 311.9498457 -595.57299805 318.43896484 C-596.8674437 319.73273543 -598.16203764 321.02635767 -599.45677185 322.31983948 C-602.1588433 325.02044349 -604.85911561 327.72283002 -607.55810547 330.42651367 C-610.9997117 333.87381658 -614.44578884 337.3166096 -617.89323521 340.75807095 C-620.56406891 343.42527322 -623.23249424 346.09487477 -625.90022087 348.7651844 C-627.16921763 350.03484329 -628.4389439 351.30377352 -629.70944405 352.57192802 C-636.06531178 358.9186317 -642.34360951 365.25252253 -648.1315918 372.13037109 C-649.14119229 373.28717115 -650.15265181 374.44235391 -651.16674805 375.59521484 C-662.94176406 389.08047143 -674.34762424 402.83792094 -685.1315918 417.13037109 C-685.8431543 418.06623047 -686.5547168 419.00208984 -687.2878418 419.96630859 C-689.58750801 423.00753384 -691.86340924 426.06566662 -694.1315918 429.13037109 C-694.79288086 430.01861572 -694.79288086 430.01861572 -695.4675293 430.92480469 C-721.32846606 465.76027233 -743.67374949 502.91313334 -764.1315918 541.13037109 C-764.65897949 542.11521484 -765.18636719 543.10005859 -765.72973633 544.11474609 C-790.2293452 590.06531999 -809.43882561 638.52633851 -825.1315918 688.13037109 C-825.3535321 688.83166138 -825.57547241 689.53295166 -825.80413818 690.25549316 C-852.0366305 773.47933236 -864.48109876 861.13843263 -795.1315918 1285.13037109 C-794.69411621 1286.16226562 -794.25664063 1287.19416016 -793.8059082 1288.25732422 C-767.34954025 1350.55747797 -733.65696724 1410.38300723 -692.58032227 1464.22119141 C-691.05498566 1466.23132492 -689.54653932 1468.25325491 -688.04174805 1470.27880859 C-683.00883627 1477.05026195 -677.92720285 1483.7436347 -672.5300293 1490.23193359 C-670.70172366 1492.44138438 -668.89795371 1494.66349269 -667.1081543 1496.90380859 C-661.35965415 1504.08252452 -655.50078113 1511.04591021 -649.18164062 1517.73022461 C-646.41330212 1520.67541489 -643.87520469 1523.66810606 -641.5065918 1526.94287109 C-640.7228418 1527.99474609 -639.9390918 1529.04662109 -639.1315918 1530.13037109 C-638.4715918 1530.13037109 -637.8115918 1530.13037109 -637.1315918 1530.13037109 C-636.86991211 1530.72076172 -636.60823242 1531.31115234 -636.33862305 1531.91943359 C-635.067643 1534.24750708 -633.74028828 1535.69067109 -631.8190918 1537.50537109 C-629.48170404 1539.75997636 -627.33895368 1542.02500926 -625.3190918 1544.56787109 C-624.5972168 1545.41349609 -623.8753418 1546.25912109 -623.1315918 1547.13037109 C-622.4715918 1547.13037109 -621.8115918 1547.13037109 -621.1315918 1547.13037109 C-621.1315918 1547.79037109 -621.1315918 1548.45037109 -621.1315918 1549.13037109 C-619.50514979 1550.85846572 -617.84514092 1552.4915045 -616.1315918 1554.13037109 C-614.85804592 1555.39848608 -613.58742103 1556.66953859 -612.3190918 1557.94287109 C-611.63588867 1558.62607422 -610.95268555 1559.30927734 -610.2487793 1560.01318359 C-607.09643555 1563.16552734 -607.09643555 1563.16552734 -603.9440918 1566.31787109 C-602.95493774 1567.3061792 -602.95493774 1567.3061792 -601.94580078 1568.31445312 C-600.43197985 1569.82970007 -598.9236743 1571.35045466 -597.41674805 1572.87255859 C-595.18996394 1575.07269742 -592.90722728 1577.17439095 -590.5690918 1579.25537109 C-586.68731322 1582.72641006 -582.83775075 1586.22881919 -579.0065918 1589.75537109 C-574.43949586 1593.95016888 -569.82882091 1598.08188516 -565.1315918 1602.13037109 C-564.09509588 1603.03267168 -563.05864123 1603.93501966 -562.0222168 1604.83740234 C-555.06060365 1610.87566706 -547.97263868 1616.69780527 -540.6940918 1622.34912109 C-537.62493434 1624.73398516 -534.59707362 1627.1664936 -531.57519531 1629.61083984 C-518.79592762 1639.93376809 -505.42444712 1649.40372257 -491.97924805 1658.83349609 C-490.402945 1659.93990753 -488.82947102 1661.05034773 -487.2565918 1662.16162109 C-476.78806805 1669.54327245 -466.09133336 1676.50149515 -455.1315918 1683.13037109 C-454.0487793 1683.78779297 -454.0487793 1683.78779297 -452.9440918 1684.45849609 C-382.56326572 1727.15619725 -307.39576632 1761.92403663 -227.65698242 1783.18847656 C-224.56656179 1784.0141582 -221.48212546 1784.85938047 -218.39846802 1785.70988464 C-134.26875929 1808.80555967 -45.24841814 1818.50136139 104.8684082 1809.13037109 C106.06409424 1808.99918884 106.06409424 1808.99918884 107.28393555 1808.86535645 C167.02145441 1802.265871 226.02759733 1788.57297862 282.8684082 1769.13037109 C283.696651 1768.84764343 284.5248938 1768.56491577 285.37823486 1768.27362061 C316.39171621 1757.66014468 346.43560715 1745.40529069 376.09448242 1731.43359375 C378.58809878 1730.26206373 381.08749203 1729.1046465 383.59106445 1727.95458984 C394.21984687 1723.0544715 404.56136938 1717.67149212 414.8684082 1712.13037109 C416.18615234 1711.42605957 416.18615234 1711.42605957 417.53051758 1710.70751953 C443.86566602 1696.61623574 469.13484448 1680.85890447 493.8684082 1664.13037109 C494.87484375 1663.45240479 494.87484375 1663.45240479 495.90161133 1662.76074219 C511.45213926 1652.2698811 526.52846735 1641.14055929 541.19897461 1629.45263672 C542.90717113 1628.09966913 544.62614964 1626.76165176 546.34887695 1625.42724609 C557.50839664 1616.76998585 568.19541643 1607.6223693 578.65356445 1598.13037109 C580.64253322 1596.3343358 582.65404015 1594.57083806 584.6809082 1592.81787109 C589.87533713 1588.28700195 594.91740191 1583.59119657 599.96362305 1578.89697266 C602.05735701 1576.95512967 604.1601819 1575.0233744 606.26293945 1573.09130859 C607.73585272 1571.72960739 609.2085126 1570.36763203 610.6809082 1569.00537109 C611.74921875 1568.02793945 611.74921875 1568.02793945 612.83911133 1567.03076172 C613.82234375 1566.11713867 613.82234375 1566.11713867 614.82543945 1565.18505859 C615.41301025 1564.64349121 616.00058105 1564.10192383 616.60595703 1563.54394531 C618.09044588 1562.19762927 618.09044588 1562.19762927 617.8684082 1560.13037109 C618.45920166 1559.87006104 619.04999512 1559.60975098 619.65869141 1559.34155273 C622.01466908 1558.05020313 623.41820386 1556.72900608 625.22387695 1554.75146484 C625.84182129 1554.08203857 626.45976563 1553.4126123 627.09643555 1552.72290039 C627.74306152 1552.01174072 628.3896875 1551.30058105 629.0559082 1550.56787109 C630.40491552 1549.10317431 631.75516914 1547.63962438 633.10668945 1546.17724609 C633.75589355 1545.4740625 634.40509766 1544.77087891 635.07397461 1544.04638672 C637.23571893 1541.73817319 639.47351805 1539.51946366 641.7434082 1537.31787109 C645.75918432 1533.37003104 649.23485443 1529.0774746 652.7512207 1524.68505859 C654.53965778 1522.52705518 656.35313471 1520.57134879 658.3684082 1518.63037109 C662.05326153 1515.06383875 665.20720815 1511.13779629 668.41918945 1507.14599609 C670.54802952 1504.52484054 672.71505264 1501.94858973 674.91137695 1499.38452148 C680.28774382 1493.1036223 685.42876645 1486.67150972 690.40649414 1480.06933594 C691.45981095 1478.67230151 692.5154324 1477.27700364 693.57250977 1475.8828125 C713.71680386 1449.31142724 732.92837579 1421.87303479 749.8684082 1393.13037109 C750.39031738 1392.25348633 750.91222656 1391.37660156 751.44995117 1390.47314453 C771.90920835 1356.08179889 790.94420125 1320.31059777 805.8684082 1283.13037109 C806.40297944 1281.81665633 806.9381844 1280.50319933 807.47387695 1279.18994141 C838.80114142 1202.27644579 859.26248336 1122.6272353 868.8684082 1040.13037109 C868.95564148 1039.38180847 869.04287476 1038.63324585 869.13275146 1037.86199951 C879.02474196 952.02788965 874.72664744 863.84682387 822.0559082 649.38037109 C821.65609238 648.23796463 821.65609238 648.23796463 821.24819946 647.07247925 C816.64479589 633.95763273 811.73192557 620.98499172 805.9934082 608.31787109 C805.29650594 606.76852129 804.59989887 605.21903869 803.90356445 603.66943359 C803.5595459 602.9053418 803.21552734 602.14125 802.86108398 601.35400391 C801.95059674 599.31447665 801.05926977 597.26816684 800.17700195 595.21630859 C786.96187132 564.64500469 771.70299093 534.85463895 754.8684082 506.13037109 C754.36954102 505.27620605 753.87067383 504.42204102 753.35668945 503.54199219 C745.51568606 490.19061784 737.07760448 477.26107218 728.4934082 464.38037109 C727.97725952 463.60515106 727.46111084 462.82993103 726.92932129 462.03121948 C718.6864593 449.66872969 710.07078239 437.64927242 701.0949707 425.80810547 C698.83389247 422.81010514 696.64533376 419.82206907 694.6340332 416.64990234 C694.05137695 415.81845703 693.4687207 414.98701172 692.8684082 414.13037109 C692.2084082 414.13037109 691.5484082 414.13037109 690.8684082 414.13037109 C690.6105957 413.57865234 690.3527832 413.02693359 690.0871582 412.45849609 C688.68877695 409.78722934 687.08077515 407.36185201 685.3684082 404.88037109 C684.7599707 403.98833984 684.1515332 403.09630859 683.5246582 402.17724609 C682.9780957 401.50177734 682.4315332 400.82630859 681.8684082 400.13037109 C681.2084082 400.13037109 680.5484082 400.13037109 679.8684082 400.13037109 C679.2084082 398.48037109 678.5484082 396.83037109 677.8684082 395.13037109 C677.2084082 395.13037109 676.5484082 395.13037109 675.8684082 395.13037109 C674.8684082 393.13037109 673.8684082 391.13037109 672.8684082 389.13037109 C672.2084082 389.13037109 671.5484082 389.13037109 670.8684082 389.13037109 C670.6105957 388.56833984 670.3527832 388.00630859 670.0871582 387.42724609 C668.72671044 384.86332531 667.14051859 382.67810744 665.3684082 380.38037109 C664.45575195 379.18154297 664.45575195 379.18154297 663.5246582 377.95849609 C662.9780957 377.35521484 662.4315332 376.75193359 661.8684082 376.13037109 C661.2084082 376.13037109 660.5484082 376.13037109 659.8684082 376.13037109 C659.60543945 375.53740234 659.3424707 374.94443359 659.0715332 374.33349609 C657.81438311 372.03144203 656.53252902 370.65653726 654.6184082 368.88037109 C652.03112642 366.38434198 649.84153963 363.86177414 647.7434082 360.94287109 C645.41810514 357.73407557 643.00267607 355.57662894 639.8684082 353.13037109 C638.85017421 351.99525295 637.854082 350.84014151 636.87231445 349.67333984 C632.25622504 344.33600529 627.25353226 339.40738478 622.2434082 334.44287109 C621.3152832 333.51925781 620.3871582 332.59564453 619.4309082 331.64404297 C617.70599919 329.92778321 615.98005653 328.21256113 614.25268555 326.4987793 C611.12519701 323.39210652 608.00062459 320.2829267 604.91137695 317.13818359 C600.96054773 313.12913163 596.90023362 309.33558229 592.6262207 305.67333984 C591.18878106 304.41158727 589.82818324 303.06277179 588.4934082 301.69287109 C587.0038532 299.89933485 587.0038532 299.89933485 584.8684082 300.13037109 C584.5590332 299.29505859 584.5590332 299.29505859 584.2434082 298.44287109 C582.29157789 295.16024738 579.92609826 293.42363864 576.8684082 291.13037109 C576.2084082 291.13037109 575.5484082 291.13037109 574.8684082 291.13037109 C574.8684082 290.47037109 574.8684082 289.81037109 574.8684082 289.13037109 C573.35004939 287.78453511 573.35004939 287.78453511 571.3684082 286.44287109 C568.47501834 284.34503676 565.72529371 282.19434266 563.0559082 279.81787109 C558.12285184 275.43076563 553.00087776 271.28084348 547.8684082 267.13037109 C546.97508789 266.38142578 546.08176758 265.63248047 545.16137695 264.86083984 C543.08111922 262.92957424 543.08111922 262.92957424 540.8684082 263.13037109 C540.8684082 262.47037109 540.8684082 261.81037109 540.8684082 261.13037109 C538.73657366 259.42122789 536.59763299 257.82918401 534.3684082 256.25537109 C532.9822487 255.26031133 531.59685678 254.2641816 530.2121582 253.26708984 C529.13321289 252.49244385 529.13321289 252.49244385 528.0324707 251.70214844 C525.27602336 249.70011685 522.5652333 247.64170779 519.85473633 245.578125 C512.45777916 239.95403736 504.89352555 234.69847667 497.1184082 229.61474609 C494.53293087 227.90904924 491.96597958 226.17725312 489.3996582 224.44287109 C431.87143303 185.6332087 369.88844098 154.26378847 304.8684082 130.13037109 C303.81572754 129.73430664 302.76304688 129.33824219 301.6784668 128.93017578 C218.41593985 97.69573456 129.01466041 80.60975056 40.18969727 77.42041016 C36.66067555 77.29262707 33.19634847 77.06980213 29.69189453 76.62548828 C24.966592 76.08926789 20.30776911 75.98553901 15.5559082 75.99755859 C14.702146 75.99660187 13.84838379 75.99564514 12.96875 75.99465942 C11.17716396 75.99398383 9.38557538 75.99579441 7.59399414 76 C4.87551292 76.00535709 2.15719688 76.00003374 -0.5612793 75.99365234 C-2.31388382 75.99431324 -4.06648825 75.99559463 -5.8190918 75.99755859 C-7.01949097 75.99452225 -7.01949097 75.99452225 -8.24414062 75.99142456 C-12.88609185 76.01040025 -17.39636408 76.32639057 -22.00341797 76.88781738 Z " fill="#000000" transform="translate(955.131591796875,14.86962890625)"/>
<path d="M0 0 C3.11700951 0.00461324 6.233627 -0.00224742 9.35058594 -0.02050781 C26.47155692 -0.11966047 43.45645917 0.20236098 60.52099609 1.68286133 C61.22829361 1.74362539 61.93559113 1.80438946 62.6643219 1.86699486 C98.63422755 5.03272672 140.37374928 11.21272929 165.63037109 39.47973633 C173.67698529 49.55305385 175.69699588 60.41613063 174.96191406 73.01977539 C174.21062998 79.52536981 171.48647457 85.45465561 168.69677734 91.31567383 C168.39707031 91.94715332 168.09736328 92.57863281 167.78857422 93.22924805 C155.50091025 118.54157494 136.57937165 140.28368939 118.32324219 161.43041992 C116.61819588 163.4067585 114.91721674 165.38655449 113.21630859 167.36645508 C112.06416543 168.70386749 110.91182655 170.04111132 109.75927734 171.37817383 C109.22786133 171.99724609 108.69644531 172.61631836 108.14892578 173.25415039 C105.1235744 176.75466779 102.01108463 180.0868183 98.69677734 183.31567383 C98.44621582 182.7883667 98.1956543 182.26105957 97.9375 181.71777344 C78.4971729 141.09586545 49.55469775 111.33455703 6.68505859 96.05786133 C5.82992676 95.75976562 4.97479492 95.46166992 4.09375 95.15454102 C2.00651249 94.42407166 -0.06427129 93.66087761 -2.13525391 92.88598633 C-24.69376477 85.01616997 -49.58381876 83.096585 -73.30322266 83.12817383 C-74.14158661 83.12877808 -74.97995056 83.12938232 -75.84371948 83.13000488 C-106.05595553 83.18882751 -136.43776219 85.77140845 -165.89648438 92.74731445 C-167.58349566 93.14570787 -169.27286285 93.53419432 -170.96386719 93.9152832 C-233.90484022 108.12317779 -291.78411338 140.1842344 -340.30322266 182.31567383 C-341.03798828 182.94989258 -341.77275391 183.58411133 -342.52978516 184.23754883 C-344.46508911 185.91841043 -346.38440121 187.61602909 -348.30322266 189.31567383 C-349.32561035 190.21189453 -349.32561035 190.21189453 -350.36865234 191.1262207 C-357.33026754 197.2965412 -363.9502227 203.776494 -370.52612305 210.35327148 C-372.36113988 212.18609652 -374.20403516 214.01074393 -376.04736328 215.83520508 C-382.19934649 221.95864608 -388.03929479 228.12356778 -393.40942383 234.9543457 C-395.36036236 237.38691983 -397.42291657 239.66455853 -399.55322266 241.94067383 C-405.32549954 248.29317958 -410.43171051 255.13939569 -415.57080078 262.00512695 C-417.29004316 264.29809621 -419.02272789 266.5804392 -420.75634766 268.86254883 C-434.47479382 287.05167839 -446.33314189 306.36426238 -457.30322266 326.31567383 C-457.76825195 327.1592041 -458.23328125 328.00273438 -458.71240234 328.87182617 C-471.07536507 351.4565107 -480.77405473 375.04645858 -489.30322266 399.31567383 C-489.59003906 400.12004883 -489.87685547 400.92442383 -490.17236328 401.75317383 C-505.09063442 444.05308186 -513.35841549 491.25334197 -513.50634766 536.00317383 C-513.50917503 536.68320465 -513.51200241 537.36323547 -513.51491547 538.06387329 C-513.52978909 541.67645633 -513.53908794 545.2890008 -513.54345703 548.90161133 C-513.54780033 551.81580408 -513.56154643 554.72969385 -513.58447266 557.64379883 C-513.7367724 577.4243558 -512.87257828 596.67014977 -510.30322266 616.31567383 C-510.20080261 617.10979675 -510.09838257 617.90391968 -509.99285889 618.72210693 C-509.46050032 622.7508713 -508.82991287 626.75289028 -508.11572266 630.75317383 C-507.80380981 632.51238159 -507.80380981 632.51238159 -507.4855957 634.30712891 C-495.78215217 697.43035296 -465.08864226 759.71434891 -412.30322266 798.31567383 C-411.75811035 798.71625 -411.21299805 799.11682617 -410.65136719 799.52954102 C-402.56223434 805.42447531 -394.11141147 810.58179859 -385.30322266 815.31567383 C-384.68608398 815.64954102 -384.06894531 815.9834082 -383.43310547 816.32739258 C-367.54588607 824.8375296 -350.91160197 830.60950636 -333.41064453 834.80883789 C-331.57396879 835.25055926 -329.74273427 835.71478491 -327.91259766 836.18286133 C-300.12485489 842.8218048 -269.51273804 843.65660203 -241.30322266 839.31567383 C-240.56974609 839.20320313 -239.83626953 839.09073242 -239.08056641 838.97485352 C-190.85721239 831.36395025 -147.89841906 810.66025881 -112.30322266 777.31567383 C-110.93360484 776.12197023 -109.55897828 774.93397658 -108.17822266 773.75317383 C-101.66740608 768.08117411 -95.67879888 761.91468592 -90.06494141 755.35864258 C-87.46977233 752.34916713 -84.78112243 749.42449619 -82.10009766 746.49145508 C-80.26797711 744.38535405 -80.26797711 744.38535405 -78.97119141 742.08129883 C-77.06806802 738.92576871 -74.89874166 736.07100119 -72.671875 733.13867188 C-64.72022845 722.63643635 -57.80657995 711.76065028 -51.30322266 700.31567383 C-50.50924072 698.930979 -50.50924072 698.930979 -49.69921875 697.51831055 C-48.07196975 694.66782926 -46.46512184 691.80686254 -44.86572266 688.94067383 C-44.38151855 688.08626709 -43.89731445 687.23186035 -43.3984375 686.3515625 C-35.50664604 671.9637973 -32.53615331 656.85784843 -29.50244141 640.91333008 C-29.05894221 638.6276054 -28.61440605 636.34208172 -28.16889954 634.05674744 C-27.00021115 628.04847242 -25.84423227 622.03782533 -24.69140625 616.02648926 C-22.86634347 606.52376256 -21.02020152 597.02508765 -19.17828751 587.52561569 C-18.50596511 584.05651197 -17.83486229 580.58717369 -17.16378784 577.11782837 C-14.41349339 562.91760266 -11.60270116 548.73118658 -8.69775391 534.56176758 C-8.52868719 533.73465837 -8.35962048 532.90754917 -8.18543053 532.05537605 C-7.71773829 529.77111467 -7.2471691 527.48747159 -6.77514648 525.20410156 C-6.51325027 523.93638412 -6.25135406 522.66866669 -5.98152161 521.36253357 C-5.30322266 518.31567383 -5.30322266 518.31567383 -4.30322266 515.31567383 C7.57677734 515.31567383 19.45677734 515.31567383 31.69677734 515.31567383 C30.57181211 525.44036096 30.57181211 525.44036096 29.83552551 529.05152893 C29.66930852 529.87680305 29.50309153 530.70207716 29.33183765 531.55235958 C29.15167449 532.42630651 28.97151133 533.30025343 28.78588867 534.20068359 C28.5933208 535.15118623 28.40075293 536.10168886 28.20234966 537.08099461 C27.56478343 540.22376965 26.92173198 543.36539699 26.27880859 546.50708008 C25.82547342 548.73794292 25.37256099 550.96889171 24.92004395 553.19992065 C23.95635588 557.94844977 22.99057205 562.69654545 22.02310181 567.44430542 C19.46604293 579.99559502 16.92450708 592.5500316 14.38427734 605.10473633 C14.13198175 606.35122137 13.87968616 607.59770641 13.61974525 608.88196373 C9.65296577 628.48777858 5.77996304 648.1088315 2.00927734 667.75317383 C-2.46065858 691.02816725 -7.08655543 714.27069859 -11.77197266 737.50317383 C-11.91804026 738.22753986 -12.06410786 738.95190588 -12.21460176 739.6982224 C-15.19257713 754.46557023 -18.17534437 769.23194614 -21.16682655 783.99656397 C-22.7181309 791.65332462 -24.26757885 799.31045934 -25.81494141 806.96801758 C-26.02301882 807.99761034 -26.02301882 807.99761034 -26.23529983 809.04800296 C-30.1644095 828.49510168 -33.99815601 847.95830431 -37.72900391 867.44458008 C-41.81418343 888.77991903 -46.03556141 910.08509865 -50.33447266 931.37817383 C-50.48640524 932.13090867 -50.63833783 932.88364352 -50.79487443 933.65918851 C-53.28355669 945.98828664 -55.7787054 958.31607454 -58.27455902 970.64372253 C-60.61004065 982.17959896 -62.94321119 993.71593878 -65.27197266 1005.25317383 C-65.42369572 1006.00462284 -65.57541879 1006.75607184 -65.73173952 1007.53029203 C-70.16988373 1029.51487101 -74.49793387 1051.51746821 -78.71627426 1073.54545975 C-81.93186349 1090.33038766 -85.24326616 1107.09289956 -88.65478516 1123.83911133 C-88.87347511 1124.91367836 -89.09216507 1125.98824539 -89.31748199 1127.09537506 C-91.29030413 1136.78689942 -93.26860761 1146.47729544 -95.25634766 1156.16577148 C-100.25709281 1180.55465791 -105.06468315 1204.96079861 -109.38916016 1229.47973633 C-109.58272724 1230.57437572 -109.77629433 1231.66901512 -109.97572708 1232.79682541 C-110.52186191 1235.89565603 -111.06299767 1238.99530458 -111.6015625 1242.09545898 C-111.76029217 1243.00053318 -111.91902184 1243.90560738 -112.08256149 1244.83810806 C-115.82719543 1263.26853576 -115.82719543 1263.26853576 -111.48291016 1280.74145508 C-107.21294251 1286.43945826 -101.11605674 1288.91007859 -94.30322266 1290.31567383 C-73.52105723 1292.37432468 -53.15316179 1288.03252049 -33.30688477 1282.24682617 C-32.01536499 1281.87098389 -32.01536499 1281.87098389 -30.69775391 1281.48754883 C-29.94341064 1281.26164062 -29.18906738 1281.03573242 -28.41186523 1280.80297852 C-26.30322266 1280.31567383 -26.30322266 1280.31567383 -22.30322266 1280.31567383 C-22.04927734 1281.41524414 -21.79533203 1282.51481445 -21.53369141 1283.64770508 C-19.61267238 1291.91688688 -17.63142584 1300.14932479 -15.30322266 1308.31567383 C-39.56704019 1321.26119794 -65.42925718 1330.59920684 -92.30322266 1336.31567383 C-93.46265381 1336.56776611 -93.46265381 1336.56776611 -94.64550781 1336.82495117 C-105.02071276 1339.00765725 -115.27102495 1339.63372888 -125.86572266 1339.75317383 C-127.04336182 1339.77549072 -128.22100098 1339.79780762 -129.43432617 1339.82080078 C-139.06949875 1339.79546489 -147.67537878 1337.88384505 -154.83056641 1331.05004883 C-160.70511718 1324.13147974 -161.07844288 1316.634259 -160.52458191 1307.83581543 C-160.09987451 1303.00058592 -159.33089787 1298.21807499 -158.57666016 1293.42504883 C-158.39916229 1292.28731522 -158.22166443 1291.1495816 -158.03878784 1289.97737122 C-156.07791421 1277.60634185 -153.78610425 1265.30369878 -151.42822266 1253.00317383 C-151.19800415 1251.79376129 -150.96778564 1250.58434875 -150.73059082 1249.33828735 C-146.27146455 1225.92409102 -141.5620999 1202.56112381 -136.76131535 1179.21477795 C-133.74906649 1164.56438419 -130.8227396 1149.90443053 -128.07275391 1135.20239258 C-123.83804037 1112.57602843 -119.28142697 1090.01421494 -114.74801636 1067.44616699 C-112.16738869 1054.59904036 -109.59501187 1041.7502595 -107.02197266 1028.90161133 C-106.76846479 1027.63599365 -106.51495693 1026.37037598 -106.25376701 1025.06640625 C-102.34743045 1005.56290401 -98.46513621 986.0549101 -94.62837219 966.53760529 C-93.98218475 963.25051935 -93.33554795 959.9635218 -92.68896484 956.67651367 C-92.5579475 956.01045923 -92.42693016 955.34440479 -92.2919426 954.65816689 C-92.02182822 953.28501223 -91.75170557 951.9118592 -91.48157501 950.53870773 C-91.20605799 949.13816074 -90.9305606 947.73760989 -90.6550827 946.33705521 C-86.38000559 924.60420947 -82.08353007 902.87558236 -77.78276157 881.14780807 C-76.51344971 874.73509963 -75.24482474 868.32225727 -73.97799683 861.90905762 C-72.78498947 855.86965632 -71.59013214 849.83062401 -70.39385223 843.79187012 C-69.94765328 841.53781313 -69.50212536 839.28362319 -69.05728912 837.02929688 C-68.44470441 833.92550144 -67.82971556 830.82219188 -67.21411133 827.71899414 C-67.03394942 826.80321217 -66.85378752 825.88743019 -66.66816616 824.94389725 C-66.50194791 824.10858852 -66.33572966 823.2732798 -66.16447449 822.41265869 C-66.02134418 821.68908802 -65.87821386 820.96551735 -65.73074627 820.22002029 C-65.30322266 818.31567383 -65.30322266 818.31567383 -64.30322266 815.31567383 C-71.45579981 821.09100375 -71.45579981 821.09100375 -78.44775391 827.05786133 C-88.31619441 835.71412715 -98.70483204 843.57643279 -109.30322266 851.31567383 C-110.05039551 851.86288086 -110.79756836 852.41008789 -111.56738281 852.97387695 C-122.1358556 860.68000529 -133.04073429 867.67005629 -144.30322266 874.31567383 C-146.00478516 875.32694336 -146.00478516 875.32694336 -147.74072266 876.35864258 C-151.23452451 878.3952939 -154.75846187 880.3697619 -158.30322266 882.31567383 C-159.09728516 882.75492188 -159.89134766 883.19416992 -160.70947266 883.64672852 C-183.55090903 896.19762194 -207.45480168 905.55145385 -232.30322266 913.31567383 C-232.98626465 913.53304199 -233.66930664 913.75041016 -234.37304688 913.97436523 C-244.82933794 917.2814842 -255.5401821 919.30220407 -266.30322266 921.31567383 C-267.36154297 921.52192383 -268.41986328 921.72817383 -269.51025391 921.94067383 C-272.43498181 922.47624632 -275.35704856 922.9137597 -278.30322266 923.31567383 C-279.24222412 923.45102539 -279.24222412 923.45102539 -280.20019531 923.58911133 C-341.76170354 932.09819675 -409.64432881 922.06313164 -465.30322266 894.31567383 C-466.52912109 893.72181885 -466.52912109 893.72181885 -467.77978516 893.1159668 C-487.41694136 883.57137807 -505.98338189 871.59514772 -522.75830078 857.6003418 C-524.29517058 856.32236947 -525.85390451 855.07084254 -527.41259766 853.81958008 C-535.61413268 847.12594503 -543.11753608 839.71201975 -550.61572266 832.25317383 C-551.12778259 831.74638092 -551.63984253 831.23958801 -552.16741943 830.71743774 C-559.01709799 823.92228304 -565.31903884 816.90037153 -571.30322266 809.31567383 C-572.47609868 807.86751328 -573.64925572 806.41958026 -574.82275391 804.97192383 C-615.56186922 753.8721163 -637.04229384 691.01873787 -642.30322266 626.31567383 C-642.40038574 625.15664551 -642.49754883 623.99761719 -642.59765625 622.8034668 C-643.38660856 612.42699844 -643.46287373 602.09209562 -643.42822266 591.69067383 C-643.42600708 590.80361755 -643.4237915 589.91656128 -643.42150879 589.00262451 C-643.16486903 501.32066208 -620.16614057 416.95916485 -520.74023438 259.05688477 C-518.65819133 256.53409663 -516.60915471 253.98475613 -514.55322266 251.44067383 C-510.96390563 247.05592207 -507.22717223 242.82934776 -503.41259766 238.63989258 C-501.55695609 236.59525048 -499.73565889 234.52783234 -497.92822266 232.44067383 C-489.01785645 222.24509395 -479.68261482 212.53376475 -470.09545898 202.97753906 C-468.10429489 200.99177706 -466.11859045 199.00066643 -464.13330078 197.0090332 C-452.86225975 185.73209861 -452.86225975 185.73209861 -446.92553711 180.69287109 C-444.37029739 178.52370522 -441.94325222 176.22512794 -439.49072266 173.94067383 C-434.87022716 169.67172189 -430.11215514 165.63536088 -425.20947266 161.69067383 C-422.50149933 159.47770638 -419.85098648 157.21390785 -417.20947266 154.92285156 C-410.6591312 149.24247733 -403.96943109 143.82814113 -397.03662109 138.61938477 C-395.19628006 137.23524095 -393.36290408 135.84217807 -391.52978516 134.44848633 C-359.6120942 110.25377557 -325.80080792 88.86863733 -290.30322266 70.31567383 C-289.29775391 69.7876416 -288.29228516 69.25960937 -287.25634766 68.71557617 C-263.43531039 56.27981576 -238.7961353 45.86174447 -213.55322266 36.69067383 C-212.87556854 36.44437225 -212.19791443 36.19807068 -211.49972534 35.94430542 C-202.84288685 32.81260763 -194.13044583 29.93088544 -185.30322266 27.31567383 C-184.37622559 27.03965332 -183.44922852 26.76363281 -182.49414062 26.47924805 C-147.0068625 16.04032198 -111.00657389 8.60433456 -74.30322266 4.06567383 C-73.09077881 3.91453125 -71.87833496 3.76338867 -70.62915039 3.60766602 C-66.52409343 3.12780844 -62.41769877 2.7052503 -58.30322266 2.31567383 C-56.94052246 2.18486923 -56.94052246 2.18486923 -55.55029297 2.05142212 C-37.02405314 0.33160937 -18.58836495 -0.02976136 0 0 Z " fill="#FDFDFE" transform="translate(1021.30322265625,300.684326171875)"/>
<path d="M0 0 C3.00198416 2.7658057 4.88705998 5.2940496 6.65625 8.96484375 C7.1198291 9.92406738 7.5834082 10.88329102 8.06103516 11.87158203 C8.53589355 12.88333496 9.01075195 13.89508789 9.5 14.9375 C9.98903809 15.96987793 10.47807617 17.00225586 10.98193359 18.06591797 C21.13707861 39.87978596 23.95002315 63.90832091 16 87 C15.649375 88.08667969 15.29875 89.17335938 14.9375 90.29296875 C10.12871659 104.0013409 2.65723287 116.19893244 -7 127 C-7.79277344 127.92425781 -8.58554688 128.84851563 -9.40234375 129.80078125 C-15.08464937 136.29099762 -21.17045827 141.74795961 -28 147 C-28.90105469 147.71671875 -29.80210937 148.4334375 -30.73046875 149.171875 C-104.40662011 206.48683964 -209.25023564 200.14748268 -350 200 C-350.13190389 201.30973722 -350.26380777 202.61947445 -350.39970875 203.96890068 C-350.90912726 208.53571538 -351.68941298 212.99691756 -352.60466003 217.49758911 C-352.76555732 218.30478628 -352.92645461 219.11198344 -353.09222758 219.94364113 C-353.62839589 222.6286988 -354.17003189 225.31262283 -354.71166992 227.99658203 C-355.10053988 229.93818295 -355.48906584 231.87985279 -355.87727642 233.82158566 C-356.93537599 239.10900906 -357.99820419 244.39547228 -359.06180906 249.68179059 C-360.19040734 255.29562177 -361.31447758 260.91035945 -362.43899536 266.52500916 C-364.35566173 276.09193774 -366.27490092 285.65834698 -368.19595337 295.22439575 C-371.19153042 310.14155124 -374.1817795 325.05977182 -377.1706543 339.97827148 C-377.53943072 341.81892333 -377.53943072 341.81892333 -377.91565716 343.69676006 C-378.9038271 348.6289976 -379.89197968 353.56123862 -380.88006431 358.49349326 C-382.3495336 365.82863521 -383.81937465 373.16370253 -385.28950506 380.498712 C-392.34022483 415.6781953 -399.35722807 450.86401323 -406.3125 486.0625 C-407.94605619 494.32693336 -409.58013107 502.59126407 -411.21484375 510.85546875 C-411.40877779 511.83602863 -411.60271183 512.81658852 -411.80252266 513.82686234 C-416.7170487 538.66969869 -421.69241123 563.50036344 -426.66539383 588.3315506 C-433.26336575 621.27881151 -439.85523124 654.22723037 -446.38007355 687.18906403 C-446.85899747 689.6067177 -447.33884435 692.02418615 -447.81903076 694.44158936 C-451.08690515 710.8978524 -454.26957459 727.36600412 -457.31113815 743.86569023 C-460.4219928 760.74064787 -463.66118893 777.5857762 -467.015625 794.4140625 C-467.22946461 795.48750475 -467.44330421 796.560947 -467.66362381 797.6669178 C-469.63401188 807.55388502 -471.61132544 817.43946252 -473.59277344 827.32421875 C-487.85575318 886.1744628 -487.85575318 886.1744628 -481 945 C-481 945.99 -481 946.98 -481 948 C-484.64155887 949.64076595 -488.28544996 951.27623287 -491.93139648 952.90722656 C-493.76731075 953.72975428 -495.60145272 954.55623422 -497.43554688 955.3828125 C-525.5846972 967.96172436 -570.64504514 984.56253578 -601.5625 974.3125 C-607.69648248 971.4638706 -612.47432349 967.85332365 -615.24494934 961.50746155 C-617.91822623 952.62972741 -615.70525351 942.12372625 -614.26953125 933.16015625 C-614.08791946 931.98638931 -613.90630768 930.81262238 -613.7191925 929.60328674 C-611.92396974 918.17319567 -609.86716619 906.79971903 -607.6875 895.4375 C-607.47178345 894.30309479 -607.25606689 893.16868958 -607.03381348 891.99990845 C-600.64476185 858.44725859 -593.78099841 824.98501878 -586.98109531 791.51383209 C-580.31308901 758.72168426 -580.31308901 758.72168426 -573.99187851 725.86152649 C-570.19120184 705.51201593 -566.09704034 685.2209338 -562.02425766 664.92445755 C-561.14192305 660.52546491 -560.26128478 656.12613325 -559.38056469 651.72681713 C-555.29691855 631.33077882 -551.20239285 610.93701214 -547.05078125 590.5546875 C-546.90266495 589.82722887 -546.75454865 589.09977024 -546.60194397 588.35026741 C-545.14773949 581.20913848 -543.68934758 574.06889685 -542.22216797 566.93041992 C-539.78863522 555.05382623 -537.45133862 543.16515401 -535.22154522 531.24898529 C-531.66170874 512.25293004 -527.89475324 493.30214721 -524.05903244 474.36016655 C-523.20092026 470.11928416 -522.34583707 465.87779102 -521.49047852 461.63635254 C-519.14767827 450.02179721 -516.80048167 438.4081314 -514.45317078 426.794487 C-512.29457094 416.11427209 -510.13701547 405.43384864 -507.98298168 394.75271177 C-507.14082601 390.57728045 -506.29780908 386.40202773 -505.4524231 382.22724915 C-501.83264514 364.35066338 -498.30184055 346.46192429 -494.93446422 328.53596032 C-492.24667453 314.22895645 -489.43104358 299.95082046 -486.5390625 285.68359375 C-486.05804555 283.30228588 -485.57720477 280.92094242 -485.0965271 278.53956604 C-484.10822101 273.6456428 -483.11846442 268.75201635 -482.12744141 263.85864258 C-480.85763427 257.58854254 -479.59074084 251.317858 -478.3247776 245.04698086 C-477.34074094 240.17336918 -476.35570621 235.2999597 -475.37031174 230.42662239 C-474.90203444 228.11057598 -474.43395616 225.79448932 -473.96608353 223.47836113 C-473.31899553 220.27631538 -472.67067682 217.0745214 -472.02197266 213.87280273 C-471.830849 212.926082 -471.63972534 211.97936127 -471.44281006 211.00395203 C-471.26644012 210.13478149 -471.09007019 209.26561096 -470.90835571 208.37010193 C-470.75613367 207.61804191 -470.60391163 206.86598188 -470.4470768 206.09113216 C-470.01012966 204.04737991 -469.51953717 202.02417923 -469 200 C-484.97335852 200.0615657 -500.94655359 200.13973741 -516.91973782 200.23571491 C-524.34271756 200.27996276 -531.76565655 200.31944321 -539.1887207 200.34643555 C-617.6123732 200.63835779 -698.59158918 203.15436168 -774.60839844 224.57543945 C-777.11836552 225.02101242 -778.61064384 224.81834406 -781 224 C-773.21532423 191.9854227 -761.73188703 151.97092915 -733.0859375 131.96484375 C-688.56680923 104.87374632 -621.62546707 111.85610192 -571.40470636 111.82870948 C-566.16483355 111.82475091 -560.92497058 111.81511871 -555.68510437 111.80615234 C-546.63690332 111.79133536 -537.588703 111.77973747 -528.54049492 111.77020454 C-515.43709048 111.75622054 -502.3337046 111.73501972 -489.23031367 111.71177601 C-467.93373884 111.67400847 -446.63716071 111.63900593 -425.34057617 111.60717773 C-424.07027634 111.60527724 -422.79997651 111.60337675 -421.49118275 111.60141867 C-403.44204007 111.57455422 -385.39289467 111.55067641 -367.34374625 111.52803367 C-365.43420343 111.52563771 -365.43420343 111.52563771 -363.48608398 111.52319336 C-362.21462894 111.52159989 -360.94317389 111.52000643 -359.63318991 111.51836468 C-338.39696812 111.49155383 -317.16076667 111.45714696 -295.92456681 111.41653961 C-282.85965968 111.39185753 -269.79477431 111.37347929 -256.72984762 111.363384 C-247.77948044 111.35596623 -238.82914267 111.3413998 -229.87879502 111.32131977 C-224.72585151 111.30998889 -219.57295526 111.30179039 -214.41999817 111.30232811 C-209.68976651 111.30276033 -204.95964081 111.29388986 -200.22943641 111.27807831 C-198.53211689 111.27397319 -196.8347853 111.27309193 -195.13746338 111.27604241 C-178.11545576 111.301967 -161.36507145 109.72900688 -144.625 106.625 C-143.42093506 106.40440918 -142.21687012 106.18381836 -140.97631836 105.95654297 C-132.79004507 104.41984586 -124.91310209 102.61975715 -117 100 C-115.41451142 99.51415758 -113.82853115 99.02991819 -112.2421875 98.546875 C-83.73948198 89.68126212 -59.80589281 75.29598397 -38 55 C-37.27167969 54.33742188 -36.54335937 53.67484375 -35.79296875 52.9921875 C-20.16773318 38.18340568 -9.83211323 18.88730197 0 0 Z " fill="#000000" transform="translate(1522,616)"/>
<path d="M0 0 C4.44939092 4.14921953 6.70524159 8.72562314 9.375 14.125 C10.10082275 15.58268799 10.10082275 15.58268799 10.84130859 17.06982422 C15.08894073 25.80304708 18.31620774 34.67843146 21 44 C21.18409424 44.61246582 21.36818848 45.22493164 21.55786133 45.85595703 C22.11601115 48.56256762 22.11175556 51.09591016 22.09765625 53.859375 C22.09443359 54.97441406 22.09121094 56.08945312 22.08789062 57.23828125 C22.07951172 58.39714844 22.07113281 59.55601562 22.0625 60.75 C22.05798828 61.92433594 22.05347656 63.09867188 22.04882812 64.30859375 C22.03705094 67.20578072 22.02060326 70.10286454 22 73 C21.67 73 21.34 73 21 73 C20.8040625 71.83726562 20.608125 70.67453125 20.40625 69.4765625 C17.31473005 52.46155356 10.46141678 37.96613093 2 23 C0.4189062 25.37164069 -0.9250095 27.66409613 -2.25 30.17578125 C-7.86056445 40.68450661 -13.7238858 50.56490765 -21 60 C-21.70382812 60.92683594 -22.40765625 61.85367188 -23.1328125 62.80859375 C-53.57846581 101.51164749 -99.95536875 123.01386964 -147.91796875 130.30761719 C-149.99861349 130.62478864 -152.07742323 130.95239605 -154.15625 131.28125 C-155.52073715 131.4928088 -156.88531769 131.70376631 -158.25 131.9140625 C-159.45140625 132.0992041 -160.6528125 132.2843457 -161.890625 132.47509766 C-173.12887251 133.99336173 -184.33084401 134.15000111 -195.64830017 134.15148926 C-197.41990346 134.15534577 -199.19150586 134.1596344 -200.96310717 134.16431475 C-205.80548645 134.17588591 -210.64785636 134.18142259 -215.49024665 134.18594956 C-220.72377511 134.19192589 -225.95729127 134.20358761 -231.19081116 134.21458435 C-240.25620637 134.23290057 -249.32160188 134.24776057 -258.38700676 134.26036072 C-271.52550681 134.27871105 -284.66398937 134.30337704 -297.80247552 134.32973462 C-319.16250077 134.37250292 -340.52253091 134.41161417 -361.88256836 134.44775391 C-363.16012092 134.44991671 -364.43767348 134.45207951 -365.75393976 134.45430785 C-373.51990093 134.46743578 -381.28586225 134.48047747 -389.05182362 134.49348927 C-400.66825697 134.51295345 -412.28469017 134.53250066 -423.90112305 134.55224609 C-425.17195576 134.55440496 -426.44278848 134.55656383 -427.75213128 134.55878812 C-449.01384129 134.59502408 -470.27554277 134.63499345 -491.53724104 134.67754889 C-504.62478874 134.70356288 -517.71233399 134.72625585 -530.79989482 134.74453247 C-539.78925946 134.75729859 -548.77861403 134.77346011 -557.76796823 134.79218161 C-562.93809978 134.8028293 -568.10822181 134.81199071 -573.27836227 134.81687737 C-615.18544721 134.82540193 -615.18544721 134.82540193 -657 137.375 C-657.72805847 137.44002716 -658.45611694 137.50505432 -659.20623779 137.572052 C-707.29860452 141.54959175 -707.29860452 141.54959175 -746 168 C-758.84435775 184.74096066 -767.86669289 205.09509442 -773.5 225.375 C-775 229 -775 229 -777.6796875 230.1484375 C-780.98824859 230.99698611 -784.25927807 231.66790175 -787.625 232.25 C-795.62014909 233.68204005 -803.558814 235.35868347 -811.5 237.0625 C-812.70479004 237.31999023 -813.90958008 237.57748047 -815.15087891 237.84277344 C-819.98661698 238.88415122 -824.80900911 239.92660429 -829.59375 241.18359375 C-833 242 -833 242 -837 242 C-829.83258382 206.46364984 -815.7297752 162.34076286 -784 141 C-766.56330412 131.14251475 -746.12064508 127.44423857 -726.5 124.9375 C-725.33597656 124.77701172 -724.17195312 124.61652344 -722.97265625 124.45117188 C-694.17269417 120.72006336 -665.30173417 120.69940942 -636.31853151 120.71264386 C-630.5025463 120.7130692 -624.68658097 120.70191063 -618.87060547 120.69218445 C-608.82331997 120.67683531 -598.77604833 120.66834307 -588.72875214 120.66447449 C-574.17431238 120.65868554 -559.6199045 120.64006752 -545.06548217 120.61803395 C-538.25472647 120.60774037 -531.44396988 120.59807297 -524.63321304 120.58856964 C-523.95181092 120.58761813 -523.27040879 120.58666662 -522.56835811 120.58568628 C-506.40788122 120.56326509 -490.24739911 120.54697395 -474.08691406 120.53173828 C-473.38127589 120.53107073 -472.67563773 120.53040318 -471.94861658 120.5297154 C-460.49869694 120.51889196 -449.04877696 120.50844332 -437.59885693 120.49804676 C-426.86310497 120.48829536 -416.12735315 120.47840927 -405.39160156 120.46826172 C-404.68576016 120.46759684 -403.97991875 120.46693196 -403.25268821 120.46624694 C-387.10832597 120.45100598 -370.96396826 120.43397784 -354.81961441 120.41143036 C-354.13942027 120.4104811 -353.45922613 120.40953184 -352.75842004 120.40855382 C-345.96417991 120.39903165 -339.1699403 120.3892005 -332.37570128 120.37890986 C-317.19693602 120.35599058 -302.01819376 120.33986903 -286.83941177 120.33403051 C-276.89430898 120.32976218 -266.94922979 120.31846931 -257.00414011 120.30180657 C-251.2813456 120.29246674 -245.55859512 120.28626279 -239.83579254 120.28886986 C-199.03867792 120.38653491 -199.03867792 120.38653491 -158.5625 115.6875 C-157.30300537 115.46876221 -156.04351074 115.25002441 -154.74584961 115.0246582 C-144.6544728 113.2203855 -134.7851881 111.05875342 -125 108 C-123.68588135 107.59273682 -123.68588135 107.59273682 -122.34521484 107.17724609 C-96.78331017 99.11092629 -72.3821485 87.65745156 -52 70 C-51.195625 69.30519531 -50.39125 68.61039063 -49.5625 67.89453125 C-47.00305127 65.63501791 -44.4947368 63.33070977 -42 61 C-40.70449219 59.80310547 -40.70449219 59.80310547 -39.3828125 58.58203125 C-22.05727635 41.98466981 -10.26642366 21.47890001 0 0 Z " fill="#FBFCFC" transform="translate(1521,594)"/>
<path d="M0 0 C0.99 0.495 0.99 0.495 2 1 C1.34 1.99 0.68 2.98 0 4 C-0.66 4 -1.32 4 -2 4 C-2.11537109 4.58160889 -2.23074219 5.16321777 -2.34960938 5.76245117 C-3.04908255 8.16885944 -3.98623945 9.74379305 -5.40625 11.80078125 C-6.14391602 12.88311035 -6.14391602 12.88311035 -6.89648438 13.98730469 C-7.69022461 15.13827637 -7.69022461 15.13827637 -8.5 16.3125 C-34.33213076 54.47985533 -54.10497565 96.76065525 -67 141 C-67.28437424 141.9680809 -67.28437424 141.9680809 -67.57449341 142.95571899 C-70.9750118 154.5968309 -73.71706279 166.29129298 -76.0625 178.1875 C-76.23364319 179.04795929 -76.40478638 179.90841858 -76.58111572 180.79495239 C-79.8092018 197.10975725 -82.40429245 213.43786746 -84 230 C-84.12760208 231.2998584 -84.12760208 231.2998584 -84.25778198 232.62597656 C-85.85601832 249.30704764 -86.36340235 265.87298039 -86.3125 282.625 C-86.31100952 283.84646729 -86.30951904 285.06793457 -86.3079834 286.32641602 C-86.26697397 305.06956172 -85.66802115 323.43022777 -83 342 C-82.86078125 343.0317334 -82.7215625 344.0634668 -82.578125 345.12646484 C-73.38852475 412.0595139 -43.12925953 480.20830195 11.75 522.0625 C14.47160883 524.08360383 17.22361374 526.05499261 20 528 C20.85609863 528.60714844 20.85609863 528.60714844 21.72949219 529.2265625 C69.58728462 562.78694646 134.3018398 574.81616765 191.73828125 565.0390625 C193.49424402 564.70329011 195.24811023 564.35641348 197 564 C198.50506104 563.69400879 198.50506104 563.69400879 200.04052734 563.38183594 C235.31734269 555.96252715 268.70990137 541.58351221 297 519 C297.93199219 518.26007812 298.86398437 517.52015625 299.82421875 516.7578125 C305.39079422 512.27039182 310.74637622 507.59533967 316.00390625 502.75 C318 501 318 501 320 500 C318.38378029 503.90122 315.72603048 506.71490773 312.875 509.75 C312.38217529 510.28004639 311.88935059 510.81009277 311.3815918 511.35620117 C304.91052362 518.28355588 298.27820106 524.91725226 291 531 C290.49645996 531.42265137 289.99291992 531.84530273 289.47412109 532.28076172 C274.76768835 544.55249604 258.97081124 555.11677486 242 564 C241.06945801 564.4937915 241.06945801 564.4937915 240.12011719 564.99755859 C220.26825889 575.38803981 198.1208699 582.61299878 176 586 C174.72125 586.21011719 173.4425 586.42023437 172.125 586.63671875 C113.22226154 595.74339213 49.83546469 583.88247478 1 549 C-16.07527453 536.39117459 -32.0352401 521.84072299 -45 505 C-45.77150391 504.0104834 -45.77150391 504.0104834 -46.55859375 503.00097656 C-75.95230075 465.10481736 -92.47697952 420.51908573 -100.375 373.5 C-100.49660492 372.7838855 -100.61820984 372.067771 -100.74349976 371.32995605 C-104.42465183 349.33990772 -105.33098486 327.49763698 -105.26074219 305.24072266 C-105.249327 301.59927737 -105.25613088 297.95812394 -105.26763535 294.31668854 C-105.30730125 279.46693358 -105.13552262 264.76335076 -103.2434082 250.00878906 C-102.82995619 246.59666957 -102.5521706 243.17359292 -102.25 239.75 C-93.78665503 158.72008391 -58.89402337 58.89402337 0 0 Z " fill="#010102" transform="translate(612,554)"/>
<path d="M0 0 C0.73723423 -0.00282738 1.47446846 -0.00565475 2.23404312 -0.00856781 C6.15066102 -0.02341889 10.06724356 -0.03273175 13.98388672 -0.03710938 C17.13439799 -0.04145003 20.2846286 -0.05518938 23.43505859 -0.078125 C137.52424665 -0.89098516 137.52424665 -0.89098516 175.58984375 34.75390625 C184.85653383 44.65205732 188.44302809 55.23230737 188.37084961 68.60742188 C187.5021126 92.23706846 169.75560344 114.26331082 155.8828125 132.203125 C155.14546875 133.18152344 154.408125 134.15992188 153.6484375 135.16796875 C152.94203125 136.08707031 152.235625 137.00617188 151.5078125 137.953125 C150.88132812 138.77296875 150.25484375 139.5928125 149.609375 140.4375 C149.03960938 141.02015625 148.46984375 141.6028125 147.8828125 142.203125 C146.8928125 142.203125 145.9028125 142.203125 144.8828125 142.203125 C145.48867187 141.34074219 146.09453125 140.47835937 146.71875 139.58984375 C159.2870136 121.40053434 171.5458805 102.10208096 168.8828125 79.203125 C165.98743149 65.81605437 156.91770066 55.01621948 145.6953125 47.578125 C126.74771951 36.13170239 105.09857325 30.22325945 83.36157227 26.95043945 C81.37270151 26.6485764 79.38648266 26.32940077 77.40039062 26.00976562 C52.07760223 22.05860906 26.56913851 21.82905218 1.0078125 21.890625 C-0.62378941 21.89284747 -2.25539138 21.89502398 -3.88699341 21.89715576 C-27.07925592 21.93913993 -50.08441511 22.26323161 -73.1171875 25.203125 C-74.78578743 25.4093405 -76.45440822 25.61538715 -78.12304688 25.82128906 C-117.32872102 30.72370056 -157.05965477 37.77410536 -194.43359375 50.91796875 C-197.66449905 52.04518809 -200.89690187 53.05365234 -204.1796875 54.015625 C-233.54767469 63.00957108 -261.66927553 75.51509007 -289.1171875 89.203125 C-290.2088623 89.74694824 -291.30053711 90.29077148 -292.42529297 90.85107422 C-328.87850372 109.12250128 -363.84240436 131.24617187 -396.1171875 156.203125 C-396.75688477 156.69554687 -397.39658203 157.18796875 -398.05566406 157.6953125 C-402.10917425 160.82390229 -406.12606012 163.99542224 -410.1171875 167.203125 C-411.0453125 167.94820312 -411.9734375 168.69328125 -412.9296875 169.4609375 C-423.16063143 177.75870889 -433.14841593 186.35028937 -442.90234375 195.203125 C-444.89131252 196.99916029 -446.90281944 198.76265803 -448.9296875 200.515625 C-452.63487922 203.74346073 -456.25488979 207.05971367 -459.8671875 210.390625 C-460.42253174 210.90214111 -460.97787598 211.41365723 -461.55004883 211.94067383 C-464.46646903 214.63828532 -467.33102967 217.36962954 -470.1171875 220.203125 C-471.1071875 219.873125 -472.0971875 219.543125 -473.1171875 219.203125 C-472.54871094 218.64625 -471.98023438 218.089375 -471.39453125 217.515625 C-467.64281275 213.80774962 -463.96534773 210.10459889 -460.5546875 206.078125 C-457.75642176 202.82091819 -454.75697667 200.08602051 -451.484375 197.31640625 C-448.40294517 194.56549282 -445.51893352 191.64135011 -442.6171875 188.703125 C-438.57560767 184.6201638 -434.51125396 180.65445501 -430.12890625 176.93359375 C-427.63435147 174.78779226 -425.22499768 172.55726823 -422.8046875 170.328125 C-417.91830752 165.87623845 -412.88183207 161.6700937 -407.73681641 157.52246094 C-405.92733942 156.04847637 -404.13685145 154.55322246 -402.34765625 153.0546875 C-391.55735807 144.03764267 -380.44039247 135.53807319 -369.1171875 127.203125 C-368.36856445 126.6477002 -367.61994141 126.09227539 -366.84863281 125.52001953 C-340.54807581 106.0201188 -312.53129514 88.93621737 -283.64599609 73.55566406 C-281.2693757 72.28452321 -278.90503598 70.99324198 -276.54296875 69.6953125 C-207.50947307 32.0906601 -128.41282054 10.68907495 0 0 Z " fill="#010102" transform="translate(1026.1171875,279.796875)"/>
<path d="M0 0 C0.66 0.33 1.32 0.66 2 1 C-16.15 19.15 -34.3 37.3 -53 56 C-53 53 -53 53 -51.82592773 51.5012207 C-51.28395752 50.98132568 -50.7419873 50.46143066 -50.18359375 49.92578125 C-49.29039429 49.05481812 -49.29039429 49.05481812 -48.37915039 48.16625977 C-47.41803345 47.24864868 -47.41803345 47.24864868 -46.4375 46.3125 C-45.13097351 45.03834132 -43.8262622 43.76231851 -42.5234375 42.484375 C-41.90178711 41.87529297 -41.28013672 41.26621094 -40.63964844 40.63867188 C-38.85196634 38.85205451 -37.1837322 37.00111628 -35.5625 35.0625 C-28.11816364 26.28881786 -19.64151028 18.04421462 -10.8515625 10.62890625 C-7.04852319 7.28319445 -3.54301835 3.61683123 0 0 Z " fill="#000021" transform="translate(372,319)"/>
<path d="M0 0 C0.66 0.33 1.32 0.66 2 1 C1.01 2.485 1.01 2.485 0 4 C-0.66 4 -1.32 4 -2 4 C-2.10699219 4.57492187 -2.21398437 5.14984375 -2.32421875 5.7421875 C-3.09715922 8.32461289 -4.19707632 9.97382821 -5.8125 12.125 C-6.31394531 12.80820312 -6.81539062 13.49140625 -7.33203125 14.1953125 C-9.09519552 16.10299843 -10.6226901 16.99957024 -13 18 C-11.32774297 14.23742169 -8.97793589 11.14941529 -6.5 7.875 C-6.09652344 7.33746094 -5.69304688 6.79992187 -5.27734375 6.24609375 C-3.60868567 4.03773767 -1.95966381 1.95966381 0 0 Z " fill="#0B0C10" transform="translate(612,554)"/>
<path d="M0 0 C0.33 0.66 0.66 1.32 1 2 C-0.09248597 3.50852857 -1.19938499 5.00662831 -2.3125 6.5 C-3.23482422 7.75296875 -3.23482422 7.75296875 -4.17578125 9.03125 C-4.77777344 9.6809375 -5.37976562 10.330625 -6 11 C-6.99 11 -7.98 11 -9 11 C-8.06981474 9.53699018 -7.13055973 8.07974421 -6.1875 6.625 C-5.66542969 5.81289063 -5.14335938 5.00078125 -4.60546875 4.1640625 C-3 2 -3 2 0 0 Z " fill="#08080E" transform="translate(1180,411)"/>
</svg>
